M48
METRIC,LZ,000.000
;FILE_FORMAT=3:3
;TYPE=NON_PLATED
;Layer: Drill NPTH
;EasyEDA v6.4.25, 2021-12-23T20:24:24+01:00
;2482385ce7534962863c69214551aa84,7297f3df0b98496e9ffcb7c94425d3c9,10
;Gerber Generator version 0.2
;Holesize 1 = 0.901 mm
T01C0.901
;Holesize 2 = 1.200 mm
T02C1.200
;Holesize 3 = 2.501 mm
T03C2.501
%
G05
G90
T01
X088900Y060960
X081280Y045720
X012700Y060960
X005080Y045720
X092710Y063500
X001270Y063500
T02
X074930Y040005
X077470Y040005
X072390Y040005
X080010Y040005
X082550Y040005
X085090Y040005
X087630Y040005
X090170Y040005
X092710Y040005
X001352Y040027
X003892Y040027
X006432Y040027
X008972Y040027
X011512Y040027
X014052Y040027
X016592Y040027
X019132Y040027
X021672Y040027
X024892Y036830
X024892Y034334
X024892Y031776
X024892Y029217
X024892Y026721
X024892Y024163
X024892Y021606
X024892Y019110
X024892Y016552
X024892Y013938
X024892Y011442
X024892Y008884
X024892Y006354
X024892Y003859
X024892Y001300
X069205Y036779
X069205Y034284
X069205Y031726
X069205Y029166
X069205Y026670
X069205Y024112
X069205Y021555
X069205Y019060
X069205Y016501
X069205Y013887
X069205Y011392
X069205Y008833
X069205Y006304
X069205Y003808
X069205Y001250
T03
X030480Y033020
X063500Y033020
X069850Y039370
X024130Y039370
M30
