M48
METRIC,LZ,000.000
;FILE_FORMAT=3:3
;TYPE=PLATED
;Layer: Drill PTH
;EasyEDA v6.4.25, 2021-12-23T20:24:24+01:00
;2482385ce7534962863c69214551aa84,7297f3df0b98496e9ffcb7c94425d3c9,10
;Gerber Generator version 0.2
;Holesize 1 = 0.800 mm
T01C0.800
;Holesize 2 = 0.901 mm
T02C0.901
%
G05
G90
T01
X038161Y035561
X045659Y035559
X050861Y035561
X058359Y035559
X007620Y058420
X010160Y058420
X083820Y058420
X086360Y058420
X017781Y058359
X017779Y050861
X076199Y050861
X076201Y058359
X007620Y043180
X010160Y043180
X012700Y043180
X088900Y043180
X086360Y043180
X083820Y043180
X033020Y027940
X035560Y027940
X038100Y027940
X040640Y027940
X033020Y025400
X035560Y025400
X038100Y025400
X040640Y025400
X030480Y027940
X030480Y025400
X030480Y022860
X033020Y022860
X035560Y022860
X038100Y022860
X040640Y022860
X048260Y015240
X063500Y027940
X060960Y027940
X058420Y027940
X055880Y027940
X053340Y027940
X048260Y002540
X048260Y010160
X048260Y007620
X048260Y005080
X033020Y007620
X040640Y007620
X053340Y025400
X055880Y025400
X058420Y025400
X060960Y025400
X063500Y025400
X048260Y012700
X030480Y012700
X048260Y020320
X048260Y017780
X043180Y012700
X045720Y017780
X048260Y035560
X035560Y035560
X066040Y027940
X066040Y025400
X027940Y027940
X027940Y025400
X027940Y022860
T02
X050800Y020320
X050800Y017780
X050800Y015240
X050800Y012700
X050800Y010160
X050800Y007620
X050800Y005080
X050800Y002540
X005080Y053340
X012700Y053340
X012700Y048260
X005080Y048260
X081280Y053340
X088900Y053340
X088900Y048260
X081280Y048260
M30
