G04 Layer: BottomSolderMaskLayer*
G04 EasyEDA v6.4.25, 2021-12-23T20:24:24+01:00*
G04 2482385ce7534962863c69214551aa84,7297f3df0b98496e9ffcb7c94425d3c9,10*
G04 Gerber Generator version 0.2*
G04 Scale: 100 percent, Rotated: No, Reflected: No *
G04 Dimensions in millimeters *
G04 leading zeros omitted , absolute positions ,4 integer and 5 decimal *
%FSLAX45Y45*%
%MOMM*%

%ADD12C,2.2000*%
%ADD20C,2.4000*%

%LPD*%
D12*
G01*
X3816095Y3556127D03*
G01*
X4565904Y3555872D03*
G01*
X5086095Y3556127D03*
G01*
X5835904Y3555872D03*
G01*
X5080000Y2032000D03*
G01*
X5080000Y1778000D03*
G01*
X5080000Y1524000D03*
G01*
X5080000Y1270000D03*
G01*
X5080000Y1016000D03*
G01*
X5080000Y762000D03*
G01*
X5080000Y508000D03*
G01*
X5080000Y254000D03*
G01*
X762000Y5842000D03*
G01*
X1016000Y5842000D03*
G01*
X8382000Y5842000D03*
G01*
X8636000Y5842000D03*
G01*
X1778127Y5835904D03*
G01*
X1777872Y5086095D03*
G01*
X7619872Y5086095D03*
G01*
X7620127Y5835904D03*
D20*
G01*
X508000Y5334000D03*
G01*
X1270000Y5334000D03*
G01*
X1270000Y4826000D03*
G01*
X508000Y4826000D03*
G01*
X8128000Y5334000D03*
G01*
X8890000Y5334000D03*
G01*
X8890000Y4826000D03*
G01*
X8128000Y4826000D03*
D12*
G01*
X762000Y4318000D03*
G01*
X1016000Y4318000D03*
G01*
X1270000Y4318000D03*
G01*
X8890000Y4318000D03*
G01*
X8636000Y4318000D03*
G01*
X8382000Y4318000D03*
G01*
X3302000Y2794000D03*
G01*
X3556000Y2794000D03*
G01*
X3810000Y2794000D03*
G01*
X4064000Y2794000D03*
G01*
X3302000Y2540000D03*
G01*
X3556000Y2540000D03*
G01*
X3810000Y2540000D03*
G01*
X4064000Y2540000D03*
G01*
X3048000Y2794000D03*
G01*
X3048000Y2540000D03*
G01*
X3048000Y2286000D03*
G01*
X3302000Y2286000D03*
G01*
X3556000Y2286000D03*
G01*
X3810000Y2286000D03*
G01*
X4064000Y2286000D03*
G01*
X4826000Y1524000D03*
G01*
X6350000Y2794000D03*
G01*
X6096000Y2794000D03*
G01*
X5842000Y2794000D03*
G01*
X5588000Y2794000D03*
G01*
X5334000Y2794000D03*
G01*
X4826000Y254000D03*
G01*
X4826000Y1016000D03*
G01*
X4826000Y762000D03*
G01*
X4826000Y508000D03*
G01*
X3302000Y762000D03*
G01*
X4064000Y762000D03*
G01*
X5334000Y2540000D03*
G01*
X5588000Y2540000D03*
G01*
X5842000Y2540000D03*
G01*
X6096000Y2540000D03*
G01*
X6350000Y2540000D03*
G01*
X4826000Y1270000D03*
G01*
X3048000Y1270000D03*
G01*
X4826000Y2032000D03*
G01*
X4826000Y1778000D03*
G01*
X4318000Y1270000D03*
G01*
X4572000Y1778000D03*
G01*
X4826000Y3556000D03*
G01*
X3556000Y3556000D03*
G01*
X6604000Y2794000D03*
G01*
X6604000Y2540000D03*
G01*
X2794000Y2794000D03*
G01*
X2794000Y2540000D03*
G01*
X2794000Y2286000D03*
M02*
