M48
METRIC,LZ,000.000
;FILE_FORMAT=3:3
;TYPE=NON_PLATED
;Layer: Drill NPTH
;EasyEDA v6.4.25, 2021-12-23T20:24:24+01:00
;885e605b81e8423a9881650ee7ee1bea,7297f3df0b98496e9ffcb7c94425d3c9,10
;Gerber Generator version 0.2
;Holesize 1 = 1.200 mm
T01C1.200
;Holesize 2 = 2.501 mm
T02C2.501
%
G05
G90
T01
X012700Y044323
X012700Y041934
X012700Y039267
X012700Y036830
X012700Y034163
X081280Y044225
X081280Y041835
X081280Y039168
X081280Y036732
X081280Y034065
X020320Y008890
X020320Y006223
X020320Y003834
X020320Y001167
X073689Y008872
X073689Y006205
X073689Y003816
X073689Y001149
X077470Y012065
X080010Y012065
X082630Y012055
X085170Y012055
X087684Y012004
X090224Y012004
X092713Y012080
X001270Y012090
X003810Y012090
X006430Y012080
X008970Y012080
X011484Y012029
X014024Y012029
X016513Y012105
X016510Y030480
X019050Y030480
X021670Y030480
X024210Y030480
X026724Y030480
X029264Y030480
X031753Y030480
X034324Y030480
X036864Y030480
X039483Y030480
X042023Y030480
X044538Y030480
X047078Y030480
X049567Y030480
X052080Y030480
X054620Y030480
X057239Y030480
X059779Y030480
X062294Y030480
X064834Y030480
X067323Y030480
X077432Y030480
X074943Y030480
X072403Y030480
X069889Y030480
T02
X071120Y017780
X022860Y017780
X080010Y031750
X074930Y011430
X013970Y031750
X019050Y011430
M30
