G04 Layer: TopSilkLayer*
G04 EasyEDA v6.4.25, 2021-12-23T20:24:24+01:00*
G04 885e605b81e8423a9881650ee7ee1bea,7297f3df0b98496e9ffcb7c94425d3c9,10*
G04 Gerber Generator version 0.2*
G04 Scale: 100 percent, Rotated: No, Reflected: No *
G04 Dimensions in millimeters *
G04 leading zeros omitted , absolute positions ,4 integer and 5 decimal *
%FSLAX45Y45*%
%MOMM*%

%ADD10C,0.2540*%
%ADD15C,0.2032*%
%ADD16C,0.2030*%
%ADD17C,0.1000*%
%ADD18C,0.2000*%
%ADD19C,0.0500*%
%ADD20C,0.3000*%
%ADD21C,0.1524*%

%LPD*%
D17*
X3251961Y2311400D02*
G01*
X3371341Y2356865D01*
X3251961Y2402331D02*
G01*
X3371341Y2356865D01*
X3251961Y2439923D02*
G01*
X3371341Y2439923D01*
X3251961Y2477262D02*
G01*
X3371341Y2477262D01*
X3251961Y2477262D02*
G01*
X3371341Y2556763D01*
X3251961Y2556763D02*
G01*
X3371341Y2556763D01*
D18*
X3534409Y2396744D02*
G01*
X3523234Y2390902D01*
X3511804Y2379471D01*
X3505961Y2368295D01*
X3505961Y2345436D01*
X3511804Y2334005D01*
X3523234Y2322829D01*
X3534409Y2316987D01*
X3551427Y2311400D01*
X3579875Y2311400D01*
X3596893Y2316987D01*
X3608324Y2322829D01*
X3619754Y2334005D01*
X3625341Y2345436D01*
X3625341Y2368295D01*
X3619754Y2379471D01*
X3608324Y2390902D01*
X3596893Y2396744D01*
X3579875Y2396744D01*
X3579875Y2368295D02*
G01*
X3579875Y2396744D01*
X3505961Y2434081D02*
G01*
X3625341Y2434081D01*
X3505961Y2434081D02*
G01*
X3625341Y2513584D01*
X3505961Y2513584D02*
G01*
X3625341Y2513584D01*
X3505961Y2551176D02*
G01*
X3625341Y2551176D01*
X3505961Y2551176D02*
G01*
X3505961Y2591054D01*
X3511804Y2608071D01*
X3523234Y2619247D01*
X3534409Y2625089D01*
X3551427Y2630678D01*
X3579875Y2630678D01*
X3596893Y2625089D01*
X3608324Y2619247D01*
X3619754Y2608071D01*
X3625341Y2591054D01*
X3625341Y2551176D01*
D17*
X3761993Y2413000D02*
G01*
X3755390Y2426715D01*
X3734815Y2447036D01*
X3878072Y2447036D01*
X3734815Y2505710D02*
G01*
X3734815Y2580639D01*
X3789425Y2539745D01*
X3789425Y2560320D01*
X3796284Y2574036D01*
X3803141Y2580639D01*
X3823461Y2587497D01*
X3837177Y2587497D01*
X3857497Y2580639D01*
X3871213Y2567178D01*
X3878072Y2546604D01*
X3878072Y2526284D01*
X3871213Y2505710D01*
X3864356Y2498852D01*
X3850640Y2491994D01*
X3976115Y1828800D02*
G01*
X4119372Y1828800D01*
X4119372Y1828800D02*
G01*
X4119372Y1910587D01*
X3976115Y1955545D02*
G01*
X4119372Y1955545D01*
X3976115Y1955545D02*
G01*
X3976115Y2044192D01*
X4044441Y1955545D02*
G01*
X4044441Y2010155D01*
X4119372Y1955545D02*
G01*
X4119372Y2044192D01*
X3976115Y2089150D02*
G01*
X4119372Y2089150D01*
X3976115Y2089150D02*
G01*
X3976115Y2136902D01*
X3982974Y2157476D01*
X3996690Y2171192D01*
X4010152Y2177795D01*
X4030725Y2184654D01*
X4064761Y2184654D01*
X4085336Y2177795D01*
X4098797Y2171192D01*
X4112513Y2157476D01*
X4119372Y2136902D01*
X4119372Y2089150D01*
X4057904Y2229612D02*
G01*
X4057904Y2352547D01*
X4003293Y2397505D02*
G01*
X3996690Y2410968D01*
X3976115Y2431542D01*
X4119372Y2431542D01*
X4010152Y2483357D02*
G01*
X4003293Y2483357D01*
X3989831Y2490215D01*
X3982974Y2497073D01*
X3976115Y2510536D01*
X3976115Y2537968D01*
X3982974Y2551429D01*
X3989831Y2558287D01*
X4003293Y2565145D01*
X4017009Y2565145D01*
X4030725Y2558287D01*
X4051045Y2544826D01*
X4119372Y2476500D01*
X4119372Y2572004D01*
X4269993Y2400300D02*
G01*
X4263390Y2414015D01*
X4242815Y2434336D01*
X4386072Y2434336D01*
X4242815Y2547620D02*
G01*
X4338320Y2479294D01*
X4338320Y2581655D01*
X4242815Y2547620D02*
G01*
X4386072Y2547620D01*
X4543552Y2394457D02*
G01*
X4536693Y2394457D01*
X4523231Y2401315D01*
X4516374Y2408173D01*
X4509515Y2421636D01*
X4509515Y2449068D01*
X4516374Y2462529D01*
X4523231Y2469387D01*
X4536693Y2476245D01*
X4550409Y2476245D01*
X4564125Y2469387D01*
X4584445Y2455671D01*
X4652772Y2387600D01*
X4652772Y2483104D01*
X4509515Y2623565D02*
G01*
X4652772Y2555239D01*
X4509515Y2528062D02*
G01*
X4509515Y2623565D01*
X4797552Y2394457D02*
G01*
X4790693Y2394457D01*
X4777231Y2401315D01*
X4770374Y2408173D01*
X4763515Y2421636D01*
X4763515Y2449068D01*
X4770374Y2462529D01*
X4777231Y2469387D01*
X4790693Y2476245D01*
X4804409Y2476245D01*
X4818125Y2469387D01*
X4838445Y2455671D01*
X4906772Y2387600D01*
X4906772Y2483104D01*
X4784090Y2609850D02*
G01*
X4770374Y2602992D01*
X4763515Y2582671D01*
X4763515Y2568955D01*
X4770374Y2548636D01*
X4790693Y2534920D01*
X4824984Y2528062D01*
X4859020Y2528062D01*
X4886197Y2534920D01*
X4899913Y2548636D01*
X4906772Y2568955D01*
X4906772Y2575813D01*
X4899913Y2596134D01*
X4886197Y2609850D01*
X4865877Y2616707D01*
X4859020Y2616707D01*
X4838445Y2609850D01*
X4824984Y2596134D01*
X4818125Y2575813D01*
X4818125Y2568955D01*
X4824984Y2548636D01*
X4838445Y2534920D01*
X4859020Y2528062D01*
X5038852Y2394457D02*
G01*
X5031993Y2394457D01*
X5018531Y2401315D01*
X5011674Y2408173D01*
X5004815Y2421636D01*
X5004815Y2449068D01*
X5011674Y2462529D01*
X5018531Y2469387D01*
X5031993Y2476245D01*
X5045709Y2476245D01*
X5059425Y2469387D01*
X5079745Y2455671D01*
X5148072Y2387600D01*
X5148072Y2483104D01*
X5004815Y2609850D02*
G01*
X5004815Y2541778D01*
X5066284Y2534920D01*
X5059425Y2541778D01*
X5052568Y2562097D01*
X5052568Y2582671D01*
X5059425Y2602992D01*
X5073141Y2616707D01*
X5093461Y2623565D01*
X5107177Y2623565D01*
X5127497Y2616707D01*
X5141213Y2602992D01*
X5148072Y2582671D01*
X5148072Y2562097D01*
X5141213Y2541778D01*
X5134356Y2534920D01*
X5120640Y2528062D01*
X5258815Y1600200D02*
G01*
X5402072Y1600200D01*
X5258815Y1600200D02*
G01*
X5402072Y1654810D01*
X5258815Y1709165D02*
G01*
X5402072Y1654810D01*
X5258815Y1709165D02*
G01*
X5402072Y1709165D01*
X5258815Y1795271D02*
G01*
X5265674Y1781555D01*
X5279390Y1767839D01*
X5292852Y1761236D01*
X5313425Y1754378D01*
X5347461Y1754378D01*
X5368036Y1761236D01*
X5381497Y1767839D01*
X5395213Y1781555D01*
X5402072Y1795271D01*
X5402072Y1822450D01*
X5395213Y1836165D01*
X5381497Y1849628D01*
X5368036Y1856486D01*
X5347461Y1863344D01*
X5313425Y1863344D01*
X5292852Y1856486D01*
X5279390Y1849628D01*
X5265674Y1836165D01*
X5258815Y1822450D01*
X5258815Y1795271D01*
X5258815Y1956054D02*
G01*
X5402072Y1956054D01*
X5258815Y1908302D02*
G01*
X5258815Y2003805D01*
X5292852Y2151126D02*
G01*
X5279390Y2144268D01*
X5265674Y2130552D01*
X5258815Y2117089D01*
X5258815Y2089657D01*
X5265674Y2076195D01*
X5279390Y2062479D01*
X5292852Y2055621D01*
X5313425Y2048763D01*
X5347461Y2048763D01*
X5368036Y2055621D01*
X5381497Y2062479D01*
X5395213Y2076195D01*
X5402072Y2089657D01*
X5402072Y2117089D01*
X5395213Y2130552D01*
X5381497Y2144268D01*
X5368036Y2151126D01*
X5347461Y2151126D01*
X5347461Y2117089D02*
G01*
X5347461Y2151126D01*
X5340604Y2196084D02*
G01*
X5340604Y2318765D01*
X5258815Y2377439D02*
G01*
X5258815Y2452370D01*
X5313425Y2411476D01*
X5313425Y2432050D01*
X5320284Y2445765D01*
X5327141Y2452370D01*
X5347461Y2459228D01*
X5361177Y2459228D01*
X5381497Y2452370D01*
X5395213Y2438907D01*
X5402072Y2418334D01*
X5402072Y2398013D01*
X5395213Y2377439D01*
X5388356Y2370581D01*
X5374640Y2363723D01*
X5258815Y2517902D02*
G01*
X5258815Y2592831D01*
X5313425Y2551937D01*
X5313425Y2572512D01*
X5320284Y2586228D01*
X5327141Y2592831D01*
X5347461Y2599689D01*
X5361177Y2599689D01*
X5381497Y2592831D01*
X5395213Y2579370D01*
X5402072Y2558795D01*
X5402072Y2538476D01*
X5395213Y2517902D01*
X5388356Y2511044D01*
X5374640Y2504186D01*
X5512815Y1612900D02*
G01*
X5656072Y1612900D01*
X5512815Y1612900D02*
G01*
X5656072Y1667510D01*
X5512815Y1721865D02*
G01*
X5656072Y1667510D01*
X5512815Y1721865D02*
G01*
X5656072Y1721865D01*
X5512815Y1807971D02*
G01*
X5519674Y1794255D01*
X5533390Y1780539D01*
X5546852Y1773936D01*
X5567425Y1767078D01*
X5601461Y1767078D01*
X5622036Y1773936D01*
X5635497Y1780539D01*
X5649213Y1794255D01*
X5656072Y1807971D01*
X5656072Y1835150D01*
X5649213Y1848865D01*
X5635497Y1862328D01*
X5622036Y1869186D01*
X5601461Y1876044D01*
X5567425Y1876044D01*
X5546852Y1869186D01*
X5533390Y1862328D01*
X5519674Y1848865D01*
X5512815Y1835150D01*
X5512815Y1807971D01*
X5512815Y1968754D02*
G01*
X5656072Y1968754D01*
X5512815Y1921002D02*
G01*
X5512815Y2016505D01*
X5512815Y2061463D02*
G01*
X5656072Y2061463D01*
X5512815Y2061463D02*
G01*
X5512815Y2109215D01*
X5519674Y2129789D01*
X5533390Y2143252D01*
X5546852Y2150110D01*
X5567425Y2156968D01*
X5601461Y2156968D01*
X5622036Y2150110D01*
X5635497Y2143252D01*
X5649213Y2129789D01*
X5656072Y2109215D01*
X5656072Y2061463D01*
X5594604Y2201926D02*
G01*
X5594604Y2324607D01*
X5512815Y2383281D02*
G01*
X5512815Y2458465D01*
X5567425Y2417571D01*
X5567425Y2437892D01*
X5574284Y2451607D01*
X5581141Y2458465D01*
X5601461Y2465070D01*
X5615177Y2465070D01*
X5635497Y2458465D01*
X5649213Y2444750D01*
X5656072Y2424176D01*
X5656072Y2403855D01*
X5649213Y2383281D01*
X5642356Y2376423D01*
X5628640Y2369820D01*
X5546852Y2516886D02*
G01*
X5539993Y2516886D01*
X5526531Y2523744D01*
X5519674Y2530602D01*
X5512815Y2544318D01*
X5512815Y2571495D01*
X5519674Y2585212D01*
X5526531Y2592070D01*
X5539993Y2598928D01*
X5553709Y2598928D01*
X5567425Y2592070D01*
X5587745Y2578354D01*
X5656072Y2510281D01*
X5656072Y2605531D01*
X5766815Y1946910D02*
G01*
X5910072Y1892300D01*
X5766815Y1946910D02*
G01*
X5910072Y2001265D01*
X5862320Y1912873D02*
G01*
X5862320Y1980945D01*
X5800852Y2148586D02*
G01*
X5787390Y2141728D01*
X5773674Y2128265D01*
X5766815Y2114550D01*
X5766815Y2087371D01*
X5773674Y2073655D01*
X5787390Y2059939D01*
X5800852Y2053336D01*
X5821425Y2046478D01*
X5855461Y2046478D01*
X5876036Y2053336D01*
X5889497Y2059939D01*
X5903213Y2073655D01*
X5910072Y2087371D01*
X5910072Y2114550D01*
X5903213Y2128265D01*
X5889497Y2141728D01*
X5876036Y2148586D01*
X5855461Y2148586D01*
X5855461Y2114550D02*
G01*
X5855461Y2148586D01*
X5848604Y2193544D02*
G01*
X5848604Y2316479D01*
X5766815Y2375154D02*
G01*
X5766815Y2450084D01*
X5821425Y2409189D01*
X5821425Y2429510D01*
X5828284Y2443226D01*
X5835141Y2450084D01*
X5855461Y2456942D01*
X5869177Y2456942D01*
X5889497Y2450084D01*
X5903213Y2436368D01*
X5910072Y2416047D01*
X5910072Y2395473D01*
X5903213Y2375154D01*
X5896356Y2368295D01*
X5882640Y2361437D01*
X5766815Y2583687D02*
G01*
X5766815Y2515362D01*
X5828284Y2508757D01*
X5821425Y2515362D01*
X5814568Y2535936D01*
X5814568Y2556510D01*
X5821425Y2576829D01*
X5835141Y2590545D01*
X5855461Y2597404D01*
X5869177Y2597404D01*
X5889497Y2590545D01*
X5903213Y2576829D01*
X5910072Y2556510D01*
X5910072Y2535936D01*
X5903213Y2515362D01*
X5896356Y2508757D01*
X5882640Y2501900D01*
X6020815Y1930400D02*
G01*
X6164072Y1930400D01*
X6020815Y1930400D02*
G01*
X6020815Y1991868D01*
X6027674Y2012187D01*
X6034531Y2019045D01*
X6047993Y2025904D01*
X6061709Y2025904D01*
X6075425Y2019045D01*
X6082284Y2012187D01*
X6089141Y1991868D01*
X6089141Y1930400D01*
X6089141Y1978152D02*
G01*
X6164072Y2025904D01*
X6054852Y2173223D02*
G01*
X6041390Y2166365D01*
X6027674Y2152650D01*
X6020815Y2138934D01*
X6020815Y2111755D01*
X6027674Y2098039D01*
X6041390Y2084578D01*
X6054852Y2077720D01*
X6075425Y2070862D01*
X6109461Y2070862D01*
X6130036Y2077720D01*
X6143497Y2084578D01*
X6157213Y2098039D01*
X6164072Y2111755D01*
X6164072Y2138934D01*
X6157213Y2152650D01*
X6143497Y2166365D01*
X6130036Y2173223D01*
X6109461Y2173223D01*
X6109461Y2138934D02*
G01*
X6109461Y2173223D01*
X6102604Y2218181D02*
G01*
X6102604Y2340863D01*
X6020815Y2399537D02*
G01*
X6020815Y2474468D01*
X6075425Y2433573D01*
X6075425Y2454147D01*
X6082284Y2467610D01*
X6089141Y2474468D01*
X6109461Y2481326D01*
X6123177Y2481326D01*
X6143497Y2474468D01*
X6157213Y2460752D01*
X6164072Y2440431D01*
X6164072Y2419857D01*
X6157213Y2399537D01*
X6150356Y2392679D01*
X6136640Y2385821D01*
X6020815Y2594610D02*
G01*
X6116320Y2526284D01*
X6116320Y2628645D01*
X6020815Y2594610D02*
G01*
X6164072Y2594610D01*
X6274815Y1930400D02*
G01*
X6418072Y1930400D01*
X6274815Y1930400D02*
G01*
X6274815Y1991868D01*
X6281674Y2012187D01*
X6288531Y2019045D01*
X6301993Y2025904D01*
X6315709Y2025904D01*
X6329425Y2019045D01*
X6336284Y2012187D01*
X6343141Y1991868D01*
X6343141Y1930400D01*
X6343141Y1978152D02*
G01*
X6418072Y2025904D01*
X6274815Y2070862D02*
G01*
X6418072Y2070862D01*
X6274815Y2070862D02*
G01*
X6274815Y2118613D01*
X6281674Y2138934D01*
X6295390Y2152650D01*
X6308852Y2159507D01*
X6329425Y2166365D01*
X6363461Y2166365D01*
X6384036Y2159507D01*
X6397497Y2152650D01*
X6411213Y2138934D01*
X6418072Y2118613D01*
X6418072Y2070862D01*
X6356604Y2211323D02*
G01*
X6356604Y2334005D01*
X6274815Y2392679D02*
G01*
X6274815Y2467610D01*
X6329425Y2426715D01*
X6329425Y2447289D01*
X6336284Y2460752D01*
X6343141Y2467610D01*
X6363461Y2474468D01*
X6377177Y2474468D01*
X6397497Y2467610D01*
X6411213Y2454147D01*
X6418072Y2433573D01*
X6418072Y2413254D01*
X6411213Y2392679D01*
X6404356Y2385821D01*
X6390640Y2378963D01*
X6322568Y2608071D02*
G01*
X6343141Y2601213D01*
X6356604Y2587752D01*
X6363461Y2567178D01*
X6363461Y2560320D01*
X6356604Y2540000D01*
X6343141Y2526284D01*
X6322568Y2519426D01*
X6315709Y2519426D01*
X6295390Y2526284D01*
X6281674Y2540000D01*
X6274815Y2560320D01*
X6274815Y2567178D01*
X6281674Y2587752D01*
X6295390Y2601213D01*
X6322568Y2608071D01*
X6356604Y2608071D01*
X6390640Y2601213D01*
X6411213Y2587752D01*
X6418072Y2567178D01*
X6418072Y2553462D01*
X6411213Y2533142D01*
X6397497Y2526284D01*
X6516115Y1985010D02*
G01*
X6659372Y1930400D01*
X6516115Y1985010D02*
G01*
X6659372Y2039365D01*
X6611620Y1950973D02*
G01*
X6611620Y2019045D01*
X6516115Y2084578D02*
G01*
X6659372Y2084578D01*
X6516115Y2084578D02*
G01*
X6516115Y2132329D01*
X6522974Y2152650D01*
X6536690Y2166365D01*
X6550152Y2173223D01*
X6570725Y2179828D01*
X6604761Y2179828D01*
X6625336Y2173223D01*
X6638797Y2166365D01*
X6652513Y2152650D01*
X6659372Y2132329D01*
X6659372Y2084578D01*
X6597904Y2225039D02*
G01*
X6597904Y2347721D01*
X6516115Y2406395D02*
G01*
X6516115Y2481326D01*
X6570725Y2440431D01*
X6570725Y2460752D01*
X6577584Y2474468D01*
X6584441Y2481326D01*
X6604761Y2488184D01*
X6618477Y2488184D01*
X6638797Y2481326D01*
X6652513Y2467610D01*
X6659372Y2447289D01*
X6659372Y2426715D01*
X6652513Y2406395D01*
X6645656Y2399537D01*
X6631940Y2392679D01*
X6536690Y2614929D02*
G01*
X6522974Y2608071D01*
X6516115Y2587752D01*
X6516115Y2574036D01*
X6522974Y2553462D01*
X6543293Y2540000D01*
X6577584Y2533142D01*
X6611620Y2533142D01*
X6638797Y2540000D01*
X6652513Y2553462D01*
X6659372Y2574036D01*
X6659372Y2580894D01*
X6652513Y2601213D01*
X6638797Y2614929D01*
X6618477Y2621787D01*
X6611620Y2621787D01*
X6591045Y2614929D01*
X6577584Y2601213D01*
X6570725Y2580894D01*
X6570725Y2574036D01*
X6577584Y2553462D01*
X6591045Y2540000D01*
X6611620Y2533142D01*
D18*
X3251961Y430529D02*
G01*
X3251961Y493013D01*
X3297427Y458978D01*
X3297427Y475995D01*
X3303270Y487171D01*
X3308858Y493013D01*
X3325875Y498602D01*
X3337306Y498602D01*
X3354324Y493013D01*
X3365754Y481584D01*
X3371341Y464565D01*
X3371341Y447547D01*
X3365754Y430529D01*
X3359911Y424687D01*
X3348736Y419100D01*
X3251961Y536194D02*
G01*
X3371341Y581660D01*
X3251961Y627126D02*
G01*
X3371341Y581660D01*
X3251961Y675894D02*
G01*
X3251961Y738378D01*
X3297427Y704342D01*
X3297427Y721360D01*
X3303270Y732789D01*
X3308858Y738378D01*
X3325875Y744220D01*
X3337306Y744220D01*
X3354324Y738378D01*
X3365754Y726947D01*
X3371341Y709929D01*
X3371341Y692912D01*
X3365754Y675894D01*
X3359911Y670305D01*
X3348736Y664463D01*
X3521709Y517144D02*
G01*
X3510534Y511302D01*
X3499104Y499871D01*
X3493261Y488695D01*
X3493261Y465836D01*
X3499104Y454405D01*
X3510534Y443229D01*
X3521709Y437387D01*
X3538727Y431800D01*
X3567175Y431800D01*
X3584193Y437387D01*
X3595624Y443229D01*
X3607054Y454405D01*
X3612641Y465836D01*
X3612641Y488695D01*
X3607054Y499871D01*
X3595624Y511302D01*
X3584193Y517144D01*
X3567175Y517144D01*
X3567175Y488695D02*
G01*
X3567175Y517144D01*
X3493261Y554481D02*
G01*
X3612641Y554481D01*
X3493261Y554481D02*
G01*
X3612641Y633984D01*
X3493261Y633984D02*
G01*
X3612641Y633984D01*
X3493261Y671576D02*
G01*
X3612641Y671576D01*
X3493261Y671576D02*
G01*
X3493261Y711454D01*
X3499104Y728471D01*
X3510534Y739647D01*
X3521709Y745489D01*
X3538727Y751078D01*
X3567175Y751078D01*
X3584193Y745489D01*
X3595624Y739647D01*
X3607054Y728471D01*
X3612641Y711454D01*
X3612641Y671576D01*
D17*
X3761993Y469900D02*
G01*
X3755390Y483615D01*
X3734815Y503936D01*
X3878072Y503936D01*
X3734815Y630936D02*
G01*
X3734815Y562610D01*
X3796284Y555752D01*
X3789425Y562610D01*
X3782568Y583184D01*
X3782568Y603504D01*
X3789425Y624078D01*
X3803141Y637539D01*
X3823461Y644397D01*
X3837177Y644397D01*
X3857497Y637539D01*
X3871213Y624078D01*
X3878072Y603504D01*
X3878072Y583184D01*
X3871213Y562610D01*
X3864356Y555752D01*
X3850640Y548894D01*
X3816604Y689355D02*
G01*
X3816604Y812292D01*
X3734815Y898144D02*
G01*
X3741674Y884428D01*
X3755390Y870712D01*
X3768852Y864107D01*
X3789425Y857250D01*
X3823461Y857250D01*
X3844036Y864107D01*
X3857497Y870712D01*
X3871213Y884428D01*
X3878072Y898144D01*
X3878072Y925321D01*
X3871213Y939037D01*
X3857497Y952754D01*
X3844036Y959357D01*
X3823461Y966215D01*
X3789425Y966215D01*
X3768852Y959357D01*
X3755390Y952754D01*
X3741674Y939037D01*
X3734815Y925321D01*
X3734815Y898144D01*
X3734815Y1011173D02*
G01*
X3878072Y1011173D01*
X3734815Y1011173D02*
G01*
X3878072Y1106678D01*
X3734815Y1106678D02*
G01*
X3878072Y1106678D01*
X4022852Y552957D02*
G01*
X4015993Y552957D01*
X4002531Y559815D01*
X3995674Y566673D01*
X3988815Y580136D01*
X3988815Y607568D01*
X3995674Y621029D01*
X4002531Y627887D01*
X4015993Y634745D01*
X4029709Y634745D01*
X4043425Y627887D01*
X4063745Y614171D01*
X4132072Y546100D01*
X4132072Y641604D01*
X4070604Y686562D02*
G01*
X4070604Y809244D01*
X3988815Y922528D02*
G01*
X4098036Y922528D01*
X4118356Y915670D01*
X4125213Y908812D01*
X4132072Y895095D01*
X4132072Y881634D01*
X4125213Y867918D01*
X4118356Y861060D01*
X4098036Y854202D01*
X4084320Y854202D01*
X4009390Y1062989D02*
G01*
X3995674Y1049273D01*
X3988815Y1028954D01*
X3988815Y1001521D01*
X3995674Y981202D01*
X4009390Y967486D01*
X4022852Y967486D01*
X4036568Y974344D01*
X4043425Y981202D01*
X4050284Y994663D01*
X4063745Y1035557D01*
X4070604Y1049273D01*
X4077461Y1056131D01*
X4091177Y1062989D01*
X4111497Y1062989D01*
X4125213Y1049273D01*
X4132072Y1028954D01*
X4132072Y1001521D01*
X4125213Y981202D01*
X4111497Y967486D01*
X3988815Y1162557D02*
G01*
X4132072Y1107947D01*
X3988815Y1162557D02*
G01*
X4132072Y1216913D01*
X4084320Y1128268D02*
G01*
X4084320Y1196594D01*
X4022852Y1364234D02*
G01*
X4009390Y1357376D01*
X3995674Y1343913D01*
X3988815Y1330197D01*
X3988815Y1303020D01*
X3995674Y1289304D01*
X4009390Y1275587D01*
X4022852Y1268729D01*
X4043425Y1262126D01*
X4077461Y1262126D01*
X4098036Y1268729D01*
X4111497Y1275587D01*
X4125213Y1289304D01*
X4132072Y1303020D01*
X4132072Y1330197D01*
X4125213Y1343913D01*
X4111497Y1357376D01*
X4098036Y1364234D01*
X4077461Y1364234D01*
X4077461Y1330197D02*
G01*
X4077461Y1364234D01*
X4242815Y626871D02*
G01*
X4338320Y558800D01*
X4338320Y661162D01*
X4242815Y626871D02*
G01*
X4386072Y626871D01*
X4324604Y706120D02*
G01*
X4324604Y828802D01*
X4276852Y976121D02*
G01*
X4263390Y969263D01*
X4249674Y955547D01*
X4242815Y942086D01*
X4242815Y914654D01*
X4249674Y901192D01*
X4263390Y887476D01*
X4276852Y880618D01*
X4297425Y873760D01*
X4331461Y873760D01*
X4352036Y880618D01*
X4365497Y887476D01*
X4379213Y901192D01*
X4386072Y914654D01*
X4386072Y942086D01*
X4379213Y955547D01*
X4365497Y969263D01*
X4352036Y976121D01*
X4242815Y1021079D02*
G01*
X4311141Y1075689D01*
X4386072Y1075689D01*
X4242815Y1130045D02*
G01*
X4311141Y1075689D01*
X4276852Y1277365D02*
G01*
X4263390Y1270507D01*
X4249674Y1257045D01*
X4242815Y1243329D01*
X4242815Y1216152D01*
X4249674Y1202436D01*
X4263390Y1188720D01*
X4276852Y1181862D01*
X4297425Y1175257D01*
X4331461Y1175257D01*
X4352036Y1181862D01*
X4365497Y1188720D01*
X4379213Y1202436D01*
X4386072Y1216152D01*
X4386072Y1243329D01*
X4379213Y1257045D01*
X4365497Y1270507D01*
X4352036Y1277365D01*
X4331461Y1277365D01*
X4331461Y1243329D02*
G01*
X4331461Y1277365D01*
X4523993Y495300D02*
G01*
X4517390Y509015D01*
X4496815Y529336D01*
X4640072Y529336D01*
X4517390Y656336D02*
G01*
X4503674Y649478D01*
X4496815Y628904D01*
X4496815Y615187D01*
X4503674Y594868D01*
X4523993Y581152D01*
X4558284Y574294D01*
X4592320Y574294D01*
X4619497Y581152D01*
X4633213Y594868D01*
X4640072Y615187D01*
X4640072Y622045D01*
X4633213Y642620D01*
X4619497Y656336D01*
X4599177Y662939D01*
X4592320Y662939D01*
X4571745Y656336D01*
X4558284Y642620D01*
X4551425Y622045D01*
X4551425Y615187D01*
X4558284Y594868D01*
X4571745Y581152D01*
X4592320Y574294D01*
X4578604Y708152D02*
G01*
X4578604Y830834D01*
X4496815Y875792D02*
G01*
X4640072Y875792D01*
X4496815Y875792D02*
G01*
X4640072Y930402D01*
X4496815Y984757D02*
G01*
X4640072Y930402D01*
X4496815Y984757D02*
G01*
X4640072Y984757D01*
X4517390Y1111757D02*
G01*
X4503674Y1104900D01*
X4496815Y1084326D01*
X4496815Y1070863D01*
X4503674Y1050289D01*
X4523993Y1036573D01*
X4558284Y1029970D01*
X4592320Y1029970D01*
X4619497Y1036573D01*
X4633213Y1050289D01*
X4640072Y1070863D01*
X4640072Y1077468D01*
X4633213Y1098042D01*
X4619497Y1111757D01*
X4599177Y1118362D01*
X4592320Y1118362D01*
X4571745Y1111757D01*
X4558284Y1098042D01*
X4551425Y1077468D01*
X4551425Y1070863D01*
X4558284Y1050289D01*
X4571745Y1036573D01*
X4592320Y1029970D01*
X4496815Y1204468D02*
G01*
X4503674Y1183894D01*
X4523993Y1170178D01*
X4558284Y1163573D01*
X4578604Y1163573D01*
X4612640Y1170178D01*
X4633213Y1183894D01*
X4640072Y1204468D01*
X4640072Y1217929D01*
X4633213Y1238504D01*
X4612640Y1252220D01*
X4578604Y1258823D01*
X4558284Y1258823D01*
X4523993Y1252220D01*
X4503674Y1238504D01*
X4496815Y1217929D01*
X4496815Y1204468D01*
X4496815Y1385823D02*
G01*
X4496815Y1317497D01*
X4558284Y1310639D01*
X4551425Y1317497D01*
X4544568Y1338071D01*
X4544568Y1358392D01*
X4551425Y1378965D01*
X4565141Y1392681D01*
X4585461Y1399286D01*
X4599177Y1399286D01*
X4619497Y1392681D01*
X4633213Y1378965D01*
X4640072Y1358392D01*
X4640072Y1338071D01*
X4633213Y1317497D01*
X4626356Y1310639D01*
X4612640Y1304036D01*
X4496815Y1485392D02*
G01*
X4503674Y1464818D01*
X4523993Y1451102D01*
X4558284Y1444497D01*
X4578604Y1444497D01*
X4612640Y1451102D01*
X4633213Y1464818D01*
X4640072Y1485392D01*
X4640072Y1498854D01*
X4633213Y1519428D01*
X4612640Y1533144D01*
X4578604Y1539747D01*
X4558284Y1539747D01*
X4523993Y1533144D01*
X4503674Y1519428D01*
X4496815Y1498854D01*
X4496815Y1485392D01*
X4790693Y495300D02*
G01*
X4784090Y509015D01*
X4763515Y529336D01*
X4906772Y529336D01*
X4763515Y669797D02*
G01*
X4906772Y601726D01*
X4763515Y574294D02*
G01*
X4763515Y669797D01*
X5004815Y640587D02*
G01*
X5004815Y572515D01*
X5066284Y565657D01*
X5059425Y572515D01*
X5052568Y592836D01*
X5052568Y613410D01*
X5059425Y633729D01*
X5073141Y647445D01*
X5093461Y654304D01*
X5107177Y654304D01*
X5127497Y647445D01*
X5141213Y633729D01*
X5148072Y613410D01*
X5148072Y592836D01*
X5141213Y572515D01*
X5134356Y565657D01*
X5120640Y558800D01*
X5086604Y699262D02*
G01*
X5086604Y821944D01*
X5004815Y921512D02*
G01*
X5148072Y866902D01*
X5004815Y921512D02*
G01*
X5148072Y976121D01*
X5100320Y887476D02*
G01*
X5100320Y955547D01*
X5004815Y1021079D02*
G01*
X5148072Y1075689D01*
X5004815Y1130045D02*
G01*
X5148072Y1075689D01*
X5273293Y482600D02*
G01*
X5266690Y496315D01*
X5246115Y516636D01*
X5389372Y516636D01*
X5246115Y595884D02*
G01*
X5252974Y575310D01*
X5266690Y568452D01*
X5280152Y568452D01*
X5293868Y575310D01*
X5300725Y589026D01*
X5307584Y616204D01*
X5314441Y636778D01*
X5327904Y650239D01*
X5341620Y657097D01*
X5361940Y657097D01*
X5375656Y650239D01*
X5382513Y643381D01*
X5389372Y623062D01*
X5389372Y595884D01*
X5382513Y575310D01*
X5375656Y568452D01*
X5361940Y561594D01*
X5341620Y561594D01*
X5327904Y568452D01*
X5314441Y582168D01*
X5307584Y602487D01*
X5300725Y629920D01*
X5293868Y643381D01*
X5280152Y650239D01*
X5266690Y650239D01*
X5252974Y643381D01*
X5246115Y623062D01*
X5246115Y595884D01*
X5327904Y702055D02*
G01*
X5327904Y824992D01*
X5280152Y972057D02*
G01*
X5266690Y965200D01*
X5252974Y951737D01*
X5246115Y938021D01*
X5246115Y910844D01*
X5252974Y897128D01*
X5266690Y883412D01*
X5280152Y876807D01*
X5300725Y869950D01*
X5334761Y869950D01*
X5355336Y876807D01*
X5368797Y883412D01*
X5382513Y897128D01*
X5389372Y910844D01*
X5389372Y938021D01*
X5382513Y951737D01*
X5368797Y965200D01*
X5355336Y972057D01*
X5246115Y1017270D02*
G01*
X5314441Y1071626D01*
X5389372Y1071626D01*
X5246115Y1126236D02*
G01*
X5314441Y1071626D01*
X5246115Y1171194D02*
G01*
X5389372Y1171194D01*
X5246115Y1171194D02*
G01*
X5246115Y1218945D01*
X5252974Y1239520D01*
X5266690Y1252981D01*
X5280152Y1259839D01*
X5300725Y1266697D01*
X5334761Y1266697D01*
X5355336Y1259839D01*
X5368797Y1252981D01*
X5382513Y1239520D01*
X5389372Y1218945D01*
X5389372Y1171194D01*
X5539993Y482600D02*
G01*
X5533390Y496315D01*
X5512815Y516636D01*
X5656072Y516636D01*
X5560568Y650239D02*
G01*
X5581141Y643381D01*
X5594604Y629920D01*
X5601461Y609345D01*
X5601461Y602487D01*
X5594604Y582168D01*
X5581141Y568452D01*
X5560568Y561594D01*
X5553709Y561594D01*
X5533390Y568452D01*
X5519674Y582168D01*
X5512815Y602487D01*
X5512815Y609345D01*
X5519674Y629920D01*
X5533390Y643381D01*
X5560568Y650239D01*
X5594604Y650239D01*
X5628640Y643381D01*
X5649213Y629920D01*
X5656072Y609345D01*
X5656072Y595884D01*
X5649213Y575310D01*
X5635497Y568452D01*
X5594604Y695452D02*
G01*
X5594604Y818134D01*
X5546852Y965200D02*
G01*
X5533390Y958595D01*
X5519674Y944879D01*
X5512815Y931163D01*
X5512815Y903986D01*
X5519674Y890270D01*
X5533390Y876807D01*
X5546852Y869950D01*
X5567425Y863092D01*
X5601461Y863092D01*
X5622036Y869950D01*
X5635497Y876807D01*
X5649213Y890270D01*
X5656072Y903986D01*
X5656072Y931163D01*
X5649213Y944879D01*
X5635497Y958595D01*
X5622036Y965200D01*
X5512815Y1010412D02*
G01*
X5581141Y1064768D01*
X5656072Y1064768D01*
X5512815Y1119378D02*
G01*
X5581141Y1064768D01*
X5512815Y1218945D02*
G01*
X5656072Y1164336D01*
X5512815Y1218945D02*
G01*
X5656072Y1273555D01*
X5608320Y1184910D02*
G01*
X5608320Y1252981D01*
X5800852Y464057D02*
G01*
X5793993Y464057D01*
X5780531Y470915D01*
X5773674Y477773D01*
X5766815Y491236D01*
X5766815Y518668D01*
X5773674Y532129D01*
X5780531Y538987D01*
X5793993Y545845D01*
X5807709Y545845D01*
X5821425Y538987D01*
X5841745Y525271D01*
X5910072Y457200D01*
X5910072Y552704D01*
X5793993Y597662D02*
G01*
X5787390Y611378D01*
X5766815Y631697D01*
X5910072Y631697D01*
X5848604Y676655D02*
G01*
X5848604Y799592D01*
X5787390Y940054D02*
G01*
X5773674Y926337D01*
X5766815Y905763D01*
X5766815Y878586D01*
X5773674Y858012D01*
X5787390Y844550D01*
X5800852Y844550D01*
X5814568Y851407D01*
X5821425Y858012D01*
X5828284Y871728D01*
X5841745Y912621D01*
X5848604Y926337D01*
X5855461Y933195D01*
X5869177Y940054D01*
X5889497Y940054D01*
X5903213Y926337D01*
X5910072Y905763D01*
X5910072Y878586D01*
X5903213Y858012D01*
X5889497Y844550D01*
X5766815Y985012D02*
G01*
X5910072Y985012D01*
X5766815Y985012D02*
G01*
X5766815Y1032763D01*
X5773674Y1053084D01*
X5787390Y1066800D01*
X5800852Y1073657D01*
X5821425Y1080262D01*
X5855461Y1080262D01*
X5876036Y1073657D01*
X5889497Y1066800D01*
X5903213Y1053084D01*
X5910072Y1032763D01*
X5910072Y985012D01*
X5766815Y1179829D02*
G01*
X5910072Y1125473D01*
X5766815Y1179829D02*
G01*
X5910072Y1234439D01*
X5862320Y1145794D02*
G01*
X5862320Y1214120D01*
X6046215Y521715D02*
G01*
X6046215Y596645D01*
X6100825Y555752D01*
X6100825Y576071D01*
X6107684Y589787D01*
X6114541Y596645D01*
X6134861Y603504D01*
X6148577Y603504D01*
X6168897Y596645D01*
X6182613Y582929D01*
X6189472Y562610D01*
X6189472Y542036D01*
X6182613Y521715D01*
X6175756Y514857D01*
X6162040Y508000D01*
X6128004Y648462D02*
G01*
X6128004Y771144D01*
X6046215Y921257D02*
G01*
X6189472Y921257D01*
X6046215Y921257D02*
G01*
X6046215Y982471D01*
X6053074Y1003045D01*
X6059931Y1009904D01*
X6073393Y1016762D01*
X6087109Y1016762D01*
X6100825Y1009904D01*
X6107684Y1003045D01*
X6114541Y982471D01*
X6114541Y921257D01*
X6114541Y969010D02*
G01*
X6189472Y1016762D01*
X6046215Y1061720D02*
G01*
X6189472Y1156970D01*
X6046215Y1156970D02*
G01*
X6189472Y1061720D01*
X6301993Y533400D02*
G01*
X6295390Y547115D01*
X6274815Y567436D01*
X6418072Y567436D01*
X6356604Y717550D02*
G01*
X6356604Y840231D01*
X6274815Y932942D02*
G01*
X6418072Y932942D01*
X6274815Y885189D02*
G01*
X6274815Y980694D01*
X6274815Y1025652D02*
G01*
X6418072Y1121155D01*
X6274815Y1121155D02*
G01*
X6418072Y1025652D01*
X6562852Y425957D02*
G01*
X6555993Y425957D01*
X6542531Y432815D01*
X6535674Y439673D01*
X6528815Y453136D01*
X6528815Y480568D01*
X6535674Y494029D01*
X6542531Y500887D01*
X6555993Y507745D01*
X6569709Y507745D01*
X6583425Y500887D01*
X6603745Y487171D01*
X6672072Y419100D01*
X6672072Y514604D01*
X6562852Y566420D02*
G01*
X6555993Y566420D01*
X6542531Y573278D01*
X6535674Y580136D01*
X6528815Y593597D01*
X6528815Y621029D01*
X6535674Y634492D01*
X6542531Y641350D01*
X6555993Y648207D01*
X6569709Y648207D01*
X6583425Y641350D01*
X6603745Y627634D01*
X6672072Y559562D01*
X6672072Y655065D01*
X6610604Y700023D02*
G01*
X6610604Y822705D01*
X6549390Y963168D02*
G01*
X6535674Y949452D01*
X6528815Y929131D01*
X6528815Y901954D01*
X6535674Y881379D01*
X6549390Y867663D01*
X6562852Y867663D01*
X6576568Y874521D01*
X6583425Y881379D01*
X6590284Y895095D01*
X6603745Y935989D01*
X6610604Y949452D01*
X6617461Y956310D01*
X6631177Y963168D01*
X6651497Y963168D01*
X6665213Y949452D01*
X6672072Y929131D01*
X6672072Y901954D01*
X6665213Y881379D01*
X6651497Y867663D01*
X6562852Y1110487D02*
G01*
X6549390Y1103629D01*
X6535674Y1089913D01*
X6528815Y1076452D01*
X6528815Y1049020D01*
X6535674Y1035557D01*
X6549390Y1021842D01*
X6562852Y1014984D01*
X6583425Y1008126D01*
X6617461Y1008126D01*
X6638036Y1014984D01*
X6651497Y1021842D01*
X6665213Y1035557D01*
X6672072Y1049020D01*
X6672072Y1076452D01*
X6665213Y1089913D01*
X6651497Y1103629D01*
X6638036Y1110487D01*
X6528815Y1155445D02*
G01*
X6672072Y1155445D01*
X6672072Y1155445D02*
G01*
X6672072Y1237234D01*
X6816852Y425957D02*
G01*
X6809993Y425957D01*
X6796531Y432815D01*
X6789674Y439673D01*
X6782815Y453136D01*
X6782815Y480568D01*
X6789674Y494029D01*
X6796531Y500887D01*
X6809993Y507745D01*
X6823709Y507745D01*
X6837425Y500887D01*
X6857745Y487171D01*
X6926072Y419100D01*
X6926072Y514604D01*
X6782815Y573278D02*
G01*
X6782815Y648207D01*
X6837425Y607313D01*
X6837425Y627634D01*
X6844284Y641350D01*
X6851141Y648207D01*
X6871461Y655065D01*
X6885177Y655065D01*
X6905497Y648207D01*
X6919213Y634492D01*
X6926072Y614171D01*
X6926072Y593597D01*
X6919213Y573278D01*
X6912356Y566420D01*
X6898640Y559562D01*
X6864604Y700023D02*
G01*
X6864604Y822705D01*
X6782815Y935989D02*
G01*
X6892036Y935989D01*
X6912356Y929131D01*
X6919213Y922273D01*
X6926072Y908557D01*
X6926072Y895095D01*
X6919213Y881379D01*
X6912356Y874521D01*
X6892036Y867663D01*
X6878320Y867663D01*
X6803390Y1076452D02*
G01*
X6789674Y1062736D01*
X6782815Y1042162D01*
X6782815Y1014984D01*
X6789674Y994663D01*
X6803390Y980947D01*
X6816852Y980947D01*
X6830568Y987805D01*
X6837425Y994663D01*
X6844284Y1008126D01*
X6857745Y1049020D01*
X6864604Y1062736D01*
X6871461Y1069594D01*
X6885177Y1076452D01*
X6905497Y1076452D01*
X6919213Y1062736D01*
X6926072Y1042162D01*
X6926072Y1014984D01*
X6919213Y994663D01*
X6905497Y980947D01*
X6782815Y1176020D02*
G01*
X6926072Y1121410D01*
X6782815Y1176020D02*
G01*
X6926072Y1230376D01*
X6878320Y1141729D02*
G01*
X6878320Y1210055D01*
X6782815Y1275587D02*
G01*
X6926072Y1275587D01*
X6782815Y1275587D02*
G01*
X6782815Y1323086D01*
X6789674Y1343660D01*
X6803390Y1357376D01*
X6816852Y1363979D01*
X6837425Y1370837D01*
X6871461Y1370837D01*
X6892036Y1363979D01*
X6905497Y1357376D01*
X6919213Y1343660D01*
X6926072Y1323086D01*
X6926072Y1275587D01*
X8547100Y2906521D02*
G01*
X8706104Y2668015D01*
X8706104Y2906521D02*
G01*
X8547100Y2668015D01*
X8559800Y3668521D02*
G01*
X8718804Y3430015D01*
X8718804Y3668521D02*
G01*
X8559800Y3430015D01*
X8276843Y3084576D02*
G01*
X8204200Y3043681D01*
X8276843Y3002534D01*
D19*
X9093200Y3191002D02*
G01*
X9097772Y3193287D01*
X9104629Y3200145D01*
X9104629Y3152394D01*
X9146793Y3200145D02*
G01*
X9124188Y3200145D01*
X9121902Y3179571D01*
X9124188Y3181857D01*
X9131045Y3184144D01*
X9137650Y3184144D01*
X9144508Y3181857D01*
X9149079Y3177286D01*
X9151365Y3170428D01*
X9151365Y3165855D01*
X9149079Y3159252D01*
X9144508Y3154679D01*
X9137650Y3152394D01*
X9131045Y3152394D01*
X9124188Y3154679D01*
X9121902Y3156965D01*
X9119615Y3161537D01*
X9180068Y3200145D02*
G01*
X9173209Y3197860D01*
X9168638Y3191002D01*
X9166352Y3179571D01*
X9166352Y3172713D01*
X9168638Y3161537D01*
X9173209Y3154679D01*
X9180068Y3152394D01*
X9184640Y3152394D01*
X9191497Y3154679D01*
X9195815Y3161537D01*
X9198102Y3172713D01*
X9198102Y3179571D01*
X9195815Y3191002D01*
X9191497Y3197860D01*
X9184640Y3200145D01*
X9180068Y3200145D01*
X8492997Y2489200D02*
G01*
X8490711Y2493771D01*
X8483854Y2500629D01*
X8531606Y2500629D01*
X8483854Y2529078D02*
G01*
X8486140Y2522473D01*
X8492997Y2517902D01*
X8504427Y2515615D01*
X8511286Y2515615D01*
X8522461Y2517902D01*
X8529320Y2522473D01*
X8531606Y2529078D01*
X8531606Y2533650D01*
X8529320Y2540507D01*
X8522461Y2545079D01*
X8511286Y2547365D01*
X8504427Y2547365D01*
X8492997Y2545079D01*
X8486140Y2540507D01*
X8483854Y2533650D01*
X8483854Y2529078D01*
X8483854Y2562352D02*
G01*
X8531606Y2562352D01*
X8499856Y2585212D02*
G01*
X8522461Y2562352D01*
X8513572Y2571495D02*
G01*
X8531606Y2587497D01*
D17*
X8022843Y2576576D02*
G01*
X7950200Y2535681D01*
X8022843Y2494534D01*
D19*
X8492997Y3251200D02*
G01*
X8490711Y3255771D01*
X8483854Y3262629D01*
X8531606Y3262629D01*
X8483854Y3291078D02*
G01*
X8486140Y3284473D01*
X8492997Y3279902D01*
X8504427Y3277615D01*
X8511286Y3277615D01*
X8522461Y3279902D01*
X8529320Y3284473D01*
X8531606Y3291078D01*
X8531606Y3295650D01*
X8529320Y3302507D01*
X8522461Y3307079D01*
X8511286Y3309365D01*
X8504427Y3309365D01*
X8492997Y3307079D01*
X8486140Y3302507D01*
X8483854Y3295650D01*
X8483854Y3291078D01*
X8483854Y3324352D02*
G01*
X8531606Y3324352D01*
X8499856Y3347212D02*
G01*
X8522461Y3324352D01*
X8513572Y3333495D02*
G01*
X8531606Y3349497D01*
X9093200Y2429002D02*
G01*
X9097772Y2431287D01*
X9104629Y2438145D01*
X9104629Y2390394D01*
X9146793Y2438145D02*
G01*
X9124188Y2438145D01*
X9121902Y2417571D01*
X9124188Y2419857D01*
X9131045Y2422144D01*
X9137650Y2422144D01*
X9144508Y2419857D01*
X9149079Y2415286D01*
X9151365Y2408428D01*
X9151365Y2403855D01*
X9149079Y2397252D01*
X9144508Y2392679D01*
X9137650Y2390394D01*
X9131045Y2390394D01*
X9124188Y2392679D01*
X9121902Y2394965D01*
X9119615Y2399537D01*
X9180068Y2438145D02*
G01*
X9173209Y2435860D01*
X9168638Y2429002D01*
X9166352Y2417571D01*
X9166352Y2410713D01*
X9168638Y2399537D01*
X9173209Y2392679D01*
X9180068Y2390394D01*
X9184640Y2390394D01*
X9191497Y2392679D01*
X9195815Y2399537D01*
X9198102Y2410713D01*
X9198102Y2417571D01*
X9195815Y2429002D01*
X9191497Y2435860D01*
X9184640Y2438145D01*
X9180068Y2438145D01*
X8496300Y3922013D02*
G01*
X8537193Y3922013D01*
X8552179Y3922013D02*
G01*
X8593074Y3922013D01*
X8608059Y3922013D02*
G01*
X8648954Y3922013D01*
X8663940Y3922013D02*
G01*
X8704834Y3922013D01*
X8719820Y3922013D02*
G01*
X8760968Y3922013D01*
X8803131Y3949445D02*
G01*
X8780272Y3949445D01*
X8778240Y3928871D01*
X8780272Y3931157D01*
X8787129Y3933444D01*
X8793988Y3933444D01*
X8800845Y3931157D01*
X8805418Y3926586D01*
X8807704Y3919728D01*
X8807704Y3915155D01*
X8805418Y3908552D01*
X8800845Y3903979D01*
X8793988Y3901694D01*
X8787129Y3901694D01*
X8780272Y3903979D01*
X8778240Y3906265D01*
X8775954Y3910837D01*
X8822690Y3949445D02*
G01*
X8822690Y3901694D01*
X8845295Y3933444D02*
G01*
X8822690Y3910837D01*
X8831834Y3919728D02*
G01*
X8847581Y3901694D01*
X8862568Y3922013D02*
G01*
X8903461Y3922013D01*
X8918447Y3922013D02*
G01*
X8959595Y3922013D01*
X8974581Y3922013D02*
G01*
X9015475Y3922013D01*
X9030461Y3922013D02*
G01*
X9071356Y3922013D01*
X9086341Y3922013D02*
G01*
X9127236Y3922013D01*
D17*
X8276843Y4100576D02*
G01*
X8204200Y4059681D01*
X8276843Y4018534D01*
D19*
X8746997Y4013200D02*
G01*
X8744711Y4017771D01*
X8737854Y4024629D01*
X8785606Y4024629D01*
X8737854Y4053078D02*
G01*
X8740140Y4046473D01*
X8746997Y4041902D01*
X8758427Y4039615D01*
X8765286Y4039615D01*
X8776461Y4041902D01*
X8783320Y4046473D01*
X8785606Y4053078D01*
X8785606Y4057650D01*
X8783320Y4064507D01*
X8776461Y4069079D01*
X8765286Y4071365D01*
X8758427Y4071365D01*
X8746997Y4069079D01*
X8740140Y4064507D01*
X8737854Y4057650D01*
X8737854Y4053078D01*
X8737854Y4086352D02*
G01*
X8785606Y4086352D01*
X8753856Y4109212D02*
G01*
X8776461Y4086352D01*
X8767572Y4095495D02*
G01*
X8785606Y4111497D01*
X618997Y4025900D02*
G01*
X616712Y4030471D01*
X609854Y4037329D01*
X657605Y4037329D01*
X609854Y4065778D02*
G01*
X612139Y4059173D01*
X618997Y4054602D01*
X630428Y4052315D01*
X637286Y4052315D01*
X648462Y4054602D01*
X655320Y4059173D01*
X657605Y4065778D01*
X657605Y4070350D01*
X655320Y4077207D01*
X648462Y4081779D01*
X637286Y4084065D01*
X630428Y4084065D01*
X618997Y4081779D01*
X612139Y4077207D01*
X609854Y4070350D01*
X609854Y4065778D01*
X609854Y4099052D02*
G01*
X657605Y4099052D01*
X625855Y4121912D02*
G01*
X648462Y4099052D01*
X639571Y4108195D02*
G01*
X657605Y4124197D01*
X304800Y3934713D02*
G01*
X345694Y3934713D01*
X360679Y3934713D02*
G01*
X401573Y3934713D01*
X416560Y3934713D02*
G01*
X457454Y3934713D01*
X472439Y3934713D02*
G01*
X513334Y3934713D01*
X528320Y3934713D02*
G01*
X569468Y3934713D01*
X611631Y3962145D02*
G01*
X588771Y3962145D01*
X586739Y3941571D01*
X588771Y3943857D01*
X595629Y3946144D01*
X602487Y3946144D01*
X609345Y3943857D01*
X613918Y3939286D01*
X616204Y3932428D01*
X616204Y3927855D01*
X613918Y3921252D01*
X609345Y3916679D01*
X602487Y3914394D01*
X595629Y3914394D01*
X588771Y3916679D01*
X586739Y3918965D01*
X584454Y3923537D01*
X631189Y3962145D02*
G01*
X631189Y3914394D01*
X653795Y3946144D02*
G01*
X631189Y3923537D01*
X640334Y3932428D02*
G01*
X656081Y3914394D01*
X671068Y3934713D02*
G01*
X711962Y3934713D01*
X726947Y3934713D02*
G01*
X768095Y3934713D01*
X783081Y3934713D02*
G01*
X823976Y3934713D01*
X838962Y3934713D02*
G01*
X879855Y3934713D01*
X894842Y3934713D02*
G01*
X935736Y3934713D01*
D17*
X1155700Y4100576D02*
G01*
X1228344Y4059681D01*
X1155700Y4018534D01*
X667595Y3681221D02*
G01*
X826599Y3442715D01*
X826599Y3681221D02*
G01*
X667595Y3442715D01*
D19*
X872997Y3251200D02*
G01*
X870712Y3255771D01*
X863854Y3262629D01*
X911605Y3262629D01*
X863854Y3291078D02*
G01*
X866139Y3284473D01*
X872997Y3279902D01*
X884428Y3277615D01*
X891286Y3277615D01*
X902462Y3279902D01*
X909320Y3284473D01*
X911605Y3291078D01*
X911605Y3295650D01*
X909320Y3302507D01*
X902462Y3307079D01*
X891286Y3309365D01*
X884428Y3309365D01*
X872997Y3307079D01*
X866139Y3302507D01*
X863854Y3295650D01*
X863854Y3291078D01*
X863854Y3324352D02*
G01*
X911605Y3324352D01*
X879855Y3347212D02*
G01*
X902462Y3324352D01*
X893571Y3333495D02*
G01*
X911605Y3349497D01*
X203200Y3191002D02*
G01*
X207771Y3193287D01*
X214629Y3200145D01*
X214629Y3152394D01*
X256794Y3200145D02*
G01*
X234187Y3200145D01*
X231902Y3179571D01*
X234187Y3181857D01*
X241045Y3184144D01*
X247650Y3184144D01*
X254507Y3181857D01*
X259079Y3177286D01*
X261365Y3170428D01*
X261365Y3165855D01*
X259079Y3159252D01*
X254507Y3154679D01*
X247650Y3152394D01*
X241045Y3152394D01*
X234187Y3154679D01*
X231902Y3156965D01*
X229615Y3161537D01*
X290068Y3200145D02*
G01*
X283210Y3197860D01*
X278637Y3191002D01*
X276352Y3179571D01*
X276352Y3172713D01*
X278637Y3161537D01*
X283210Y3154679D01*
X290068Y3152394D01*
X294639Y3152394D01*
X301497Y3154679D01*
X305815Y3161537D01*
X308102Y3172713D01*
X308102Y3179571D01*
X305815Y3191002D01*
X301497Y3197860D01*
X294639Y3200145D01*
X290068Y3200145D01*
D17*
X1143000Y3084576D02*
G01*
X1215644Y3043681D01*
X1143000Y3002534D01*
D19*
X7613650Y1351787D02*
G01*
X7609077Y1356360D01*
X7602474Y1358645D01*
X7593329Y1358645D01*
X7586472Y1356360D01*
X7581900Y1351787D01*
X7581900Y1347215D01*
X7584186Y1342644D01*
X7586472Y1340357D01*
X7591043Y1338071D01*
X7604506Y1333500D01*
X7609077Y1331213D01*
X7611363Y1328928D01*
X7613650Y1324355D01*
X7613650Y1317752D01*
X7609077Y1313179D01*
X7602474Y1310894D01*
X7593329Y1310894D01*
X7586472Y1313179D01*
X7581900Y1317752D01*
X7628636Y1358645D02*
G01*
X7628636Y1310894D01*
X7628636Y1358645D02*
G01*
X7644638Y1358645D01*
X7651495Y1356360D01*
X7656068Y1351787D01*
X7658354Y1347215D01*
X7660640Y1340357D01*
X7660640Y1328928D01*
X7658354Y1322070D01*
X7656068Y1317752D01*
X7651495Y1313179D01*
X7644638Y1310894D01*
X7628636Y1310894D01*
X7693659Y1358645D02*
G01*
X7675625Y1310894D01*
X7693659Y1358645D02*
G01*
X7711947Y1310894D01*
X7682229Y1326642D02*
G01*
X7705090Y1326642D01*
X7854950Y1351787D02*
G01*
X7850377Y1356360D01*
X7843774Y1358645D01*
X7834629Y1358645D01*
X7827772Y1356360D01*
X7823200Y1351787D01*
X7823200Y1347215D01*
X7825486Y1342644D01*
X7827772Y1340357D01*
X7832343Y1338071D01*
X7845806Y1333500D01*
X7850377Y1331213D01*
X7852663Y1328928D01*
X7854950Y1324355D01*
X7854950Y1317752D01*
X7850377Y1313179D01*
X7843774Y1310894D01*
X7834629Y1310894D01*
X7827772Y1313179D01*
X7823200Y1317752D01*
X7904225Y1347215D02*
G01*
X7901940Y1351787D01*
X7897368Y1356360D01*
X7892795Y1358645D01*
X7883652Y1358645D01*
X7879079Y1356360D01*
X7874508Y1351787D01*
X7872222Y1347215D01*
X7869936Y1340357D01*
X7869936Y1328928D01*
X7872222Y1322070D01*
X7874508Y1317752D01*
X7879079Y1313179D01*
X7883652Y1310894D01*
X7892795Y1310894D01*
X7897368Y1313179D01*
X7901940Y1317752D01*
X7904225Y1322070D01*
X7919211Y1358645D02*
G01*
X7919211Y1310894D01*
X7919211Y1310894D02*
G01*
X7946390Y1310894D01*
X8077200Y1358645D02*
G01*
X8077200Y1310894D01*
X8105902Y1358645D02*
G01*
X8101329Y1356360D01*
X8096758Y1351787D01*
X8094472Y1347215D01*
X8092186Y1340357D01*
X8092186Y1328928D01*
X8094472Y1322070D01*
X8096758Y1317752D01*
X8101329Y1313179D01*
X8105902Y1310894D01*
X8115045Y1310894D01*
X8119363Y1313179D01*
X8123936Y1317752D01*
X8126222Y1322070D01*
X8128508Y1328928D01*
X8128508Y1340357D01*
X8126222Y1347215D01*
X8123936Y1351787D01*
X8119363Y1356360D01*
X8115045Y1358645D01*
X8105902Y1358645D01*
X8348472Y1358645D02*
G01*
X8373363Y1358645D01*
X8359902Y1340357D01*
X8366506Y1340357D01*
X8371077Y1338071D01*
X8373363Y1335786D01*
X8375650Y1328928D01*
X8375650Y1324355D01*
X8373363Y1317752D01*
X8368791Y1313179D01*
X8362188Y1310894D01*
X8355329Y1310894D01*
X8348472Y1313179D01*
X8346186Y1315465D01*
X8343900Y1320037D01*
X8390636Y1358645D02*
G01*
X8408924Y1310894D01*
X8426958Y1358645D02*
G01*
X8408924Y1310894D01*
X8446515Y1358645D02*
G01*
X8471661Y1358645D01*
X8457945Y1340357D01*
X8464804Y1340357D01*
X8469375Y1338071D01*
X8471661Y1335786D01*
X8473947Y1328928D01*
X8473947Y1324355D01*
X8471661Y1317752D01*
X8467090Y1313179D01*
X8460231Y1310894D01*
X8453374Y1310894D01*
X8446515Y1313179D01*
X8444229Y1315465D01*
X8442197Y1320037D01*
X8631936Y1347215D02*
G01*
X8629650Y1351787D01*
X8625077Y1356360D01*
X8620506Y1358645D01*
X8611615Y1358645D01*
X8607043Y1356360D01*
X8602472Y1351787D01*
X8600186Y1347215D01*
X8597900Y1340357D01*
X8597900Y1328928D01*
X8600186Y1322070D01*
X8602472Y1317752D01*
X8607043Y1313179D01*
X8611615Y1310894D01*
X8620506Y1310894D01*
X8625077Y1313179D01*
X8629650Y1317752D01*
X8631936Y1322070D01*
X8631936Y1328928D01*
X8620506Y1328928D02*
G01*
X8631936Y1328928D01*
X8646922Y1358645D02*
G01*
X8646922Y1310894D01*
X8646922Y1358645D02*
G01*
X8678925Y1310894D01*
X8678925Y1358645D02*
G01*
X8678925Y1310894D01*
X8693911Y1358645D02*
G01*
X8693911Y1310894D01*
X8693911Y1358645D02*
G01*
X8709659Y1358645D01*
X8716518Y1356360D01*
X8721090Y1351787D01*
X8723375Y1347215D01*
X8725661Y1340357D01*
X8725661Y1328928D01*
X8723375Y1322070D01*
X8721090Y1317752D01*
X8716518Y1313179D01*
X8709659Y1310894D01*
X8693911Y1310894D01*
X8865615Y1358645D02*
G01*
X8861043Y1356360D01*
X8856472Y1351787D01*
X8854186Y1347215D01*
X8851900Y1340357D01*
X8851900Y1328928D01*
X8854186Y1322070D01*
X8856472Y1317752D01*
X8861043Y1313179D01*
X8865615Y1310894D01*
X8874506Y1310894D01*
X8879077Y1313179D01*
X8883650Y1317752D01*
X8885936Y1322070D01*
X8888222Y1328928D01*
X8888222Y1340357D01*
X8885936Y1347215D01*
X8883650Y1351787D01*
X8879077Y1356360D01*
X8874506Y1358645D01*
X8865615Y1358645D01*
X8903208Y1358645D02*
G01*
X8903208Y1324355D01*
X8905493Y1317752D01*
X8910065Y1313179D01*
X8916924Y1310894D01*
X8921495Y1310894D01*
X8928354Y1313179D01*
X8932925Y1317752D01*
X8934958Y1324355D01*
X8934958Y1358645D01*
X8965945Y1358645D02*
G01*
X8965945Y1310894D01*
X8950197Y1358645D02*
G01*
X8981947Y1358645D01*
X9133077Y1358645D02*
G01*
X9110472Y1358645D01*
X9108186Y1338071D01*
X9110472Y1340357D01*
X9117329Y1342644D01*
X9124188Y1342644D01*
X9130791Y1340357D01*
X9135363Y1335786D01*
X9137650Y1328928D01*
X9137650Y1324355D01*
X9135363Y1317752D01*
X9130791Y1313179D01*
X9124188Y1310894D01*
X9117329Y1310894D01*
X9110472Y1313179D01*
X9108186Y1315465D01*
X9105900Y1320037D01*
X9152636Y1358645D02*
G01*
X9170924Y1310894D01*
X9188958Y1358645D02*
G01*
X9170924Y1310894D01*
X243078Y1358645D02*
G01*
X220471Y1358645D01*
X218186Y1338071D01*
X220471Y1340357D01*
X227329Y1342644D01*
X234187Y1342644D01*
X240792Y1340357D01*
X245363Y1335786D01*
X247650Y1328928D01*
X247650Y1324355D01*
X245363Y1317752D01*
X240792Y1313179D01*
X234187Y1310894D01*
X227329Y1310894D01*
X220471Y1313179D01*
X218186Y1315465D01*
X215900Y1320037D01*
X262636Y1358645D02*
G01*
X280923Y1310894D01*
X298957Y1358645D02*
G01*
X280923Y1310894D01*
X483615Y1358645D02*
G01*
X479044Y1356360D01*
X474471Y1351787D01*
X472186Y1347215D01*
X469900Y1340357D01*
X469900Y1328928D01*
X472186Y1322070D01*
X474471Y1317752D01*
X479044Y1313179D01*
X483615Y1310894D01*
X492505Y1310894D01*
X497078Y1313179D01*
X501650Y1317752D01*
X503936Y1322070D01*
X506221Y1328928D01*
X506221Y1340357D01*
X503936Y1347215D01*
X501650Y1351787D01*
X497078Y1356360D01*
X492505Y1358645D01*
X483615Y1358645D01*
X521207Y1358645D02*
G01*
X521207Y1324355D01*
X523494Y1317752D01*
X528065Y1313179D01*
X534923Y1310894D01*
X539495Y1310894D01*
X546354Y1313179D01*
X550926Y1317752D01*
X552957Y1324355D01*
X552957Y1358645D01*
X583945Y1358645D02*
G01*
X583945Y1310894D01*
X568197Y1358645D02*
G01*
X599947Y1358645D01*
X757936Y1347215D02*
G01*
X755650Y1351787D01*
X751078Y1356360D01*
X746505Y1358645D01*
X737615Y1358645D01*
X733044Y1356360D01*
X728471Y1351787D01*
X726186Y1347215D01*
X723900Y1340357D01*
X723900Y1328928D01*
X726186Y1322070D01*
X728471Y1317752D01*
X733044Y1313179D01*
X737615Y1310894D01*
X746505Y1310894D01*
X751078Y1313179D01*
X755650Y1317752D01*
X757936Y1322070D01*
X757936Y1328928D01*
X746505Y1328928D02*
G01*
X757936Y1328928D01*
X772921Y1358645D02*
G01*
X772921Y1310894D01*
X772921Y1358645D02*
G01*
X804926Y1310894D01*
X804926Y1358645D02*
G01*
X804926Y1310894D01*
X819912Y1358645D02*
G01*
X819912Y1310894D01*
X819912Y1358645D02*
G01*
X835660Y1358645D01*
X842518Y1356360D01*
X847089Y1351787D01*
X849376Y1347215D01*
X851662Y1340357D01*
X851662Y1328928D01*
X849376Y1322070D01*
X847089Y1317752D01*
X842518Y1313179D01*
X835660Y1310894D01*
X819912Y1310894D01*
X982471Y1358645D02*
G01*
X1007363Y1358645D01*
X993902Y1340357D01*
X1000505Y1340357D01*
X1005078Y1338071D01*
X1007363Y1335786D01*
X1009650Y1328928D01*
X1009650Y1324355D01*
X1007363Y1317752D01*
X1002792Y1313179D01*
X996187Y1310894D01*
X989329Y1310894D01*
X982471Y1313179D01*
X980186Y1315465D01*
X977900Y1320037D01*
X1024636Y1358645D02*
G01*
X1042923Y1310894D01*
X1060957Y1358645D02*
G01*
X1042923Y1310894D01*
X1080515Y1358645D02*
G01*
X1105662Y1358645D01*
X1091945Y1340357D01*
X1098804Y1340357D01*
X1103376Y1338071D01*
X1105662Y1335786D01*
X1107947Y1328928D01*
X1107947Y1324355D01*
X1105662Y1317752D01*
X1101089Y1313179D01*
X1094231Y1310894D01*
X1087373Y1310894D01*
X1080515Y1313179D01*
X1078229Y1315465D01*
X1076197Y1320037D01*
X1244600Y1358645D02*
G01*
X1244600Y1310894D01*
X1273302Y1358645D02*
G01*
X1268729Y1356360D01*
X1264157Y1351787D01*
X1261871Y1347215D01*
X1259586Y1340357D01*
X1259586Y1328928D01*
X1261871Y1322070D01*
X1264157Y1317752D01*
X1268729Y1313179D01*
X1273302Y1310894D01*
X1282445Y1310894D01*
X1286763Y1313179D01*
X1291336Y1317752D01*
X1293621Y1322070D01*
X1295907Y1328928D01*
X1295907Y1340357D01*
X1293621Y1347215D01*
X1291336Y1351787D01*
X1286763Y1356360D01*
X1282445Y1358645D01*
X1273302Y1358645D01*
X1517650Y1351787D02*
G01*
X1513078Y1356360D01*
X1506473Y1358645D01*
X1497329Y1358645D01*
X1490471Y1356360D01*
X1485900Y1351787D01*
X1485900Y1347215D01*
X1488186Y1342644D01*
X1490471Y1340357D01*
X1495044Y1338071D01*
X1508505Y1333500D01*
X1513078Y1331213D01*
X1515363Y1328928D01*
X1517650Y1324355D01*
X1517650Y1317752D01*
X1513078Y1313179D01*
X1506473Y1310894D01*
X1497329Y1310894D01*
X1490471Y1313179D01*
X1485900Y1317752D01*
X1566926Y1347215D02*
G01*
X1564639Y1351787D01*
X1560068Y1356360D01*
X1555495Y1358645D01*
X1546352Y1358645D01*
X1541779Y1356360D01*
X1537207Y1351787D01*
X1534921Y1347215D01*
X1532636Y1340357D01*
X1532636Y1328928D01*
X1534921Y1322070D01*
X1537207Y1317752D01*
X1541779Y1313179D01*
X1546352Y1310894D01*
X1555495Y1310894D01*
X1560068Y1313179D01*
X1564639Y1317752D01*
X1566926Y1322070D01*
X1581912Y1358645D02*
G01*
X1581912Y1310894D01*
X1581912Y1310894D02*
G01*
X1609089Y1310894D01*
X1771650Y1351787D02*
G01*
X1767078Y1356360D01*
X1760473Y1358645D01*
X1751329Y1358645D01*
X1744471Y1356360D01*
X1739900Y1351787D01*
X1739900Y1347215D01*
X1742186Y1342644D01*
X1744471Y1340357D01*
X1749044Y1338071D01*
X1762505Y1333500D01*
X1767078Y1331213D01*
X1769363Y1328928D01*
X1771650Y1324355D01*
X1771650Y1317752D01*
X1767078Y1313179D01*
X1760473Y1310894D01*
X1751329Y1310894D01*
X1744471Y1313179D01*
X1739900Y1317752D01*
X1786636Y1358645D02*
G01*
X1786636Y1310894D01*
X1786636Y1358645D02*
G01*
X1802637Y1358645D01*
X1809495Y1356360D01*
X1814068Y1351787D01*
X1816354Y1347215D01*
X1818639Y1340357D01*
X1818639Y1328928D01*
X1816354Y1322070D01*
X1814068Y1317752D01*
X1809495Y1313179D01*
X1802637Y1310894D01*
X1786636Y1310894D01*
X1851660Y1358645D02*
G01*
X1833626Y1310894D01*
X1851660Y1358645D02*
G01*
X1869947Y1310894D01*
X1840229Y1326642D02*
G01*
X1863089Y1326642D01*
D17*
X6782815Y1816100D02*
G01*
X6926072Y1816100D01*
X6782815Y1816100D02*
G01*
X6782815Y1877568D01*
X6789674Y1897887D01*
X6796531Y1904745D01*
X6809993Y1911604D01*
X6823709Y1911604D01*
X6837425Y1904745D01*
X6844284Y1897887D01*
X6851141Y1877568D01*
X6851141Y1816100D01*
X6851141Y1863852D02*
G01*
X6926072Y1911604D01*
X6803390Y2052065D02*
G01*
X6789674Y2038350D01*
X6782815Y2018029D01*
X6782815Y1990597D01*
X6789674Y1970278D01*
X6803390Y1956562D01*
X6816852Y1956562D01*
X6830568Y1963420D01*
X6837425Y1970278D01*
X6844284Y1983739D01*
X6857745Y2024634D01*
X6864604Y2038350D01*
X6871461Y2045207D01*
X6885177Y2052065D01*
X6905497Y2052065D01*
X6919213Y2038350D01*
X6926072Y2018029D01*
X6926072Y1990597D01*
X6919213Y1970278D01*
X6905497Y1956562D01*
X6782815Y2144776D02*
G01*
X6926072Y2144776D01*
X6782815Y2097023D02*
G01*
X6782815Y2192528D01*
X6864604Y2237486D02*
G01*
X6864604Y2360168D01*
X6782815Y2405126D02*
G01*
X6926072Y2405126D01*
X6782815Y2405126D02*
G01*
X6782815Y2493771D01*
X6851141Y2405126D02*
G01*
X6851141Y2459736D01*
X6926072Y2405126D02*
G01*
X6926072Y2493771D01*
X6782815Y2538729D02*
G01*
X6926072Y2538729D01*
X6782815Y2538729D02*
G01*
X6926072Y2634234D01*
X6782815Y2634234D02*
G01*
X6926072Y2634234D01*
X382778Y2438145D02*
G01*
X360171Y2438145D01*
X357886Y2417571D01*
X360171Y2419857D01*
X367029Y2422144D01*
X373887Y2422144D01*
X380492Y2419857D01*
X385063Y2415286D01*
X387350Y2408428D01*
X387350Y2403855D01*
X385063Y2397252D01*
X380492Y2392679D01*
X373887Y2390394D01*
X367029Y2390394D01*
X360171Y2392679D01*
X357886Y2394965D01*
X355600Y2399537D01*
X402336Y2438145D02*
G01*
X420623Y2390394D01*
X438657Y2438145D02*
G01*
X420623Y2390394D01*
X618236Y2426715D02*
G01*
X615950Y2431287D01*
X611378Y2435860D01*
X606805Y2438145D01*
X597915Y2438145D01*
X593344Y2435860D01*
X588771Y2431287D01*
X586486Y2426715D01*
X584200Y2419857D01*
X584200Y2408428D01*
X586486Y2401570D01*
X588771Y2397252D01*
X593344Y2392679D01*
X597915Y2390394D01*
X606805Y2390394D01*
X611378Y2392679D01*
X615950Y2397252D01*
X618236Y2401570D01*
X618236Y2408428D01*
X606805Y2408428D02*
G01*
X618236Y2408428D01*
X633221Y2438145D02*
G01*
X633221Y2390394D01*
X633221Y2438145D02*
G01*
X665226Y2390394D01*
X665226Y2438145D02*
G01*
X665226Y2390394D01*
X680212Y2438145D02*
G01*
X680212Y2390394D01*
X680212Y2438145D02*
G01*
X695960Y2438145D01*
X702818Y2435860D01*
X707389Y2431287D01*
X709676Y2426715D01*
X711962Y2419857D01*
X711962Y2408428D01*
X709676Y2401570D01*
X707389Y2397252D01*
X702818Y2392679D01*
X695960Y2390394D01*
X680212Y2390394D01*
X855471Y2438145D02*
G01*
X880363Y2438145D01*
X866902Y2419857D01*
X873505Y2419857D01*
X878078Y2417571D01*
X880363Y2415286D01*
X882650Y2408428D01*
X882650Y2403855D01*
X880363Y2397252D01*
X875792Y2392679D01*
X869187Y2390394D01*
X862329Y2390394D01*
X855471Y2392679D01*
X853186Y2394965D01*
X850900Y2399537D01*
X897636Y2438145D02*
G01*
X915923Y2390394D01*
X933957Y2438145D02*
G01*
X915923Y2390394D01*
X953515Y2438145D02*
G01*
X978662Y2438145D01*
X964945Y2419857D01*
X971804Y2419857D01*
X976376Y2417571D01*
X978662Y2415286D01*
X980947Y2408428D01*
X980947Y2403855D01*
X978662Y2397252D01*
X974089Y2392679D01*
X967231Y2390394D01*
X960373Y2390394D01*
X953515Y2392679D01*
X951229Y2394965D01*
X949197Y2399537D01*
X8726677Y2438145D02*
G01*
X8704072Y2438145D01*
X8701786Y2417571D01*
X8704072Y2419857D01*
X8710929Y2422144D01*
X8717788Y2422144D01*
X8724391Y2419857D01*
X8728963Y2415286D01*
X8731250Y2408428D01*
X8731250Y2403855D01*
X8728963Y2397252D01*
X8724391Y2392679D01*
X8717788Y2390394D01*
X8710929Y2390394D01*
X8704072Y2392679D01*
X8701786Y2394965D01*
X8699500Y2399537D01*
X8746236Y2438145D02*
G01*
X8764524Y2390394D01*
X8782558Y2438145D02*
G01*
X8764524Y2390394D01*
X8492236Y2426715D02*
G01*
X8489950Y2431287D01*
X8485377Y2435860D01*
X8480806Y2438145D01*
X8471915Y2438145D01*
X8467343Y2435860D01*
X8462772Y2431287D01*
X8460486Y2426715D01*
X8458200Y2419857D01*
X8458200Y2408428D01*
X8460486Y2401570D01*
X8462772Y2397252D01*
X8467343Y2392679D01*
X8471915Y2390394D01*
X8480806Y2390394D01*
X8485377Y2392679D01*
X8489950Y2397252D01*
X8492236Y2401570D01*
X8492236Y2408428D01*
X8480806Y2408428D02*
G01*
X8492236Y2408428D01*
X8507222Y2438145D02*
G01*
X8507222Y2390394D01*
X8507222Y2438145D02*
G01*
X8539225Y2390394D01*
X8539225Y2438145D02*
G01*
X8539225Y2390394D01*
X8554211Y2438145D02*
G01*
X8554211Y2390394D01*
X8554211Y2438145D02*
G01*
X8569959Y2438145D01*
X8576818Y2435860D01*
X8581390Y2431287D01*
X8583675Y2426715D01*
X8585961Y2419857D01*
X8585961Y2408428D01*
X8583675Y2401570D01*
X8581390Y2397252D01*
X8576818Y2392679D01*
X8569959Y2390394D01*
X8554211Y2390394D01*
X8208772Y2425445D02*
G01*
X8233663Y2425445D01*
X8220202Y2407157D01*
X8226806Y2407157D01*
X8231377Y2404871D01*
X8233663Y2402586D01*
X8235950Y2395728D01*
X8235950Y2391155D01*
X8233663Y2384552D01*
X8229091Y2379979D01*
X8222488Y2377694D01*
X8215629Y2377694D01*
X8208772Y2379979D01*
X8206486Y2382265D01*
X8204200Y2386837D01*
X8250936Y2425445D02*
G01*
X8269224Y2377694D01*
X8287258Y2425445D02*
G01*
X8269224Y2377694D01*
X8306815Y2425445D02*
G01*
X8331961Y2425445D01*
X8318245Y2407157D01*
X8325104Y2407157D01*
X8329675Y2404871D01*
X8331961Y2402586D01*
X8334247Y2395728D01*
X8334247Y2391155D01*
X8331961Y2384552D01*
X8327390Y2379979D01*
X8320531Y2377694D01*
X8313674Y2377694D01*
X8306815Y2379979D01*
X8304529Y2382265D01*
X8302497Y2386837D01*
X8562593Y3806189D02*
G01*
X8559800Y3811523D01*
X8554465Y3817112D01*
X8548877Y3819652D01*
X8537956Y3819652D01*
X8532622Y3817112D01*
X8527034Y3811523D01*
X8524493Y3806189D01*
X8521700Y3797807D01*
X8521700Y3784345D01*
X8524493Y3776218D01*
X8527034Y3770629D01*
X8532622Y3765295D01*
X8537956Y3762502D01*
X8548877Y3762502D01*
X8554465Y3765295D01*
X8559800Y3770629D01*
X8562593Y3776218D01*
X8580627Y3819652D02*
G01*
X8580627Y3762502D01*
X8580627Y3819652D02*
G01*
X8618727Y3762502D01*
X8618727Y3819652D02*
G01*
X8618727Y3762502D01*
X8636761Y3819652D02*
G01*
X8658606Y3792473D01*
X8658606Y3762502D01*
X8680450Y3819652D02*
G01*
X8658606Y3792473D01*
X8698484Y3787139D02*
G01*
X8747506Y3787139D01*
X8787384Y3819652D02*
G01*
X8765540Y3762502D01*
X8787384Y3819652D02*
G01*
X8809227Y3762502D01*
X8773668Y3781552D02*
G01*
X8800845Y3781552D01*
X8827261Y3819652D02*
G01*
X8848852Y3762502D01*
X8870695Y3819652D02*
G01*
X8848852Y3762502D01*
X8907779Y3830573D02*
G01*
X8902445Y3825239D01*
X8896858Y3817112D01*
X8891524Y3806189D01*
X8888729Y3792473D01*
X8888729Y3781552D01*
X8891524Y3767836D01*
X8896858Y3756913D01*
X8902445Y3748786D01*
X8907779Y3743452D01*
X8925813Y3808729D02*
G01*
X8931402Y3811523D01*
X8939529Y3819652D01*
X8939529Y3762502D01*
X8992870Y3800602D02*
G01*
X8990329Y3792473D01*
X8984741Y3787139D01*
X8976613Y3784345D01*
X8973820Y3784345D01*
X8965691Y3787139D01*
X8960358Y3792473D01*
X8957563Y3800602D01*
X8957563Y3803395D01*
X8960358Y3811523D01*
X8965691Y3817112D01*
X8973820Y3819652D01*
X8976613Y3819652D01*
X8984741Y3817112D01*
X8990329Y3811523D01*
X8992870Y3800602D01*
X8992870Y3787139D01*
X8990329Y3773423D01*
X8984741Y3765295D01*
X8976613Y3762502D01*
X8971279Y3762502D01*
X8962897Y3765295D01*
X8960358Y3770629D01*
X9010904Y3830573D02*
G01*
X9016491Y3825239D01*
X9021825Y3817112D01*
X9027413Y3806189D01*
X9029954Y3792473D01*
X9029954Y3781552D01*
X9027413Y3767836D01*
X9021825Y3756913D01*
X9016491Y3748786D01*
X9010904Y3743452D01*
X8549893Y3018789D02*
G01*
X8547100Y3024123D01*
X8541765Y3029712D01*
X8536177Y3032252D01*
X8525256Y3032252D01*
X8519922Y3029712D01*
X8514334Y3024123D01*
X8511793Y3018789D01*
X8509000Y3010407D01*
X8509000Y2996945D01*
X8511793Y2988818D01*
X8514334Y2983229D01*
X8519922Y2977895D01*
X8525256Y2975102D01*
X8536177Y2975102D01*
X8541765Y2977895D01*
X8547100Y2983229D01*
X8549893Y2988818D01*
X8567927Y3032252D02*
G01*
X8567927Y2975102D01*
X8567927Y3032252D02*
G01*
X8606027Y2975102D01*
X8606027Y3032252D02*
G01*
X8606027Y2975102D01*
X8624061Y3032252D02*
G01*
X8645906Y3005073D01*
X8645906Y2975102D01*
X8667750Y3032252D02*
G01*
X8645906Y3005073D01*
X8685784Y2999739D02*
G01*
X8734806Y2999739D01*
X8752840Y3032252D02*
G01*
X8752840Y2975102D01*
X8752840Y3032252D02*
G01*
X8771890Y3032252D01*
X8780018Y3029712D01*
X8785606Y3024123D01*
X8788145Y3018789D01*
X8790940Y3010407D01*
X8790940Y2996945D01*
X8788145Y2988818D01*
X8785606Y2983229D01*
X8780018Y2977895D01*
X8771890Y2975102D01*
X8752840Y2975102D01*
X8828024Y3043173D02*
G01*
X8822690Y3037839D01*
X8817102Y3029712D01*
X8811768Y3018789D01*
X8808974Y3005073D01*
X8808974Y2994152D01*
X8811768Y2980436D01*
X8817102Y2969513D01*
X8822690Y2961386D01*
X8828024Y2956052D01*
X8846058Y3021329D02*
G01*
X8851645Y3024123D01*
X8859774Y3032252D01*
X8859774Y2975102D01*
X8891270Y3032252D02*
G01*
X8883141Y3029712D01*
X8880347Y3024123D01*
X8880347Y3018789D01*
X8883141Y3013202D01*
X8888729Y3010407D01*
X8899652Y3007868D01*
X8907779Y3005073D01*
X8913113Y2999739D01*
X8915908Y2994152D01*
X8915908Y2986023D01*
X8913113Y2980436D01*
X8910574Y2977895D01*
X8902191Y2975102D01*
X8891270Y2975102D01*
X8883141Y2977895D01*
X8880347Y2980436D01*
X8877808Y2986023D01*
X8877808Y2994152D01*
X8880347Y2999739D01*
X8885936Y3005073D01*
X8894063Y3007868D01*
X8904986Y3010407D01*
X8910574Y3013202D01*
X8913113Y3018789D01*
X8913113Y3024123D01*
X8910574Y3029712D01*
X8902191Y3032252D01*
X8891270Y3032252D01*
X8933941Y3043173D02*
G01*
X8939275Y3037839D01*
X8944863Y3029712D01*
X8950197Y3018789D01*
X8952991Y3005073D01*
X8952991Y2994152D01*
X8950197Y2980436D01*
X8944863Y2969513D01*
X8939275Y2961386D01*
X8933941Y2956052D01*
X459994Y3780820D02*
G01*
X457200Y3786154D01*
X451865Y3791742D01*
X446278Y3794282D01*
X435355Y3794282D01*
X430021Y3791742D01*
X424434Y3786154D01*
X421894Y3780820D01*
X419100Y3772438D01*
X419100Y3758976D01*
X421894Y3750594D01*
X424434Y3745260D01*
X430021Y3739926D01*
X435355Y3737132D01*
X446278Y3737132D01*
X451865Y3739926D01*
X457200Y3745260D01*
X459994Y3750594D01*
X478028Y3794282D02*
G01*
X478028Y3737132D01*
X478028Y3794282D02*
G01*
X516128Y3737132D01*
X516128Y3794282D02*
G01*
X516128Y3737132D01*
X534162Y3794282D02*
G01*
X556005Y3767104D01*
X556005Y3737132D01*
X577850Y3794282D02*
G01*
X556005Y3767104D01*
X595884Y3761516D02*
G01*
X644905Y3761516D01*
X703834Y3780820D02*
G01*
X701039Y3786154D01*
X695705Y3791742D01*
X690118Y3794282D01*
X679195Y3794282D01*
X673862Y3791742D01*
X668273Y3786154D01*
X665734Y3780820D01*
X662939Y3772438D01*
X662939Y3758976D01*
X665734Y3750594D01*
X668273Y3745260D01*
X673862Y3739926D01*
X679195Y3737132D01*
X690118Y3737132D01*
X695705Y3739926D01*
X701039Y3745260D01*
X703834Y3750594D01*
X703834Y3758976D01*
X690118Y3758976D02*
G01*
X703834Y3758976D01*
X740918Y3805204D02*
G01*
X735584Y3799870D01*
X729995Y3791742D01*
X724662Y3780820D01*
X721868Y3767104D01*
X721868Y3756182D01*
X724662Y3742466D01*
X729995Y3731544D01*
X735584Y3723416D01*
X740918Y3718082D01*
X786129Y3794282D02*
G01*
X758952Y3756182D01*
X799845Y3756182D01*
X786129Y3794282D02*
G01*
X786129Y3737132D01*
X817879Y3805204D02*
G01*
X823213Y3799870D01*
X828802Y3791742D01*
X834136Y3780820D01*
X836929Y3767104D01*
X836929Y3756182D01*
X834136Y3742466D01*
X828802Y3731544D01*
X823213Y3723416D01*
X817879Y3718082D01*
D20*
X2032000Y2741929D02*
G01*
X2032000Y2550921D01*
X2032000Y2741929D02*
G01*
X2113788Y2741929D01*
X2140965Y2732786D01*
X2150109Y2723642D01*
X2159254Y2705354D01*
X2159254Y2678176D01*
X2150109Y2659887D01*
X2140965Y2650997D01*
X2113788Y2641854D01*
X2032000Y2641854D01*
X2355595Y2696463D02*
G01*
X2346452Y2714497D01*
X2328418Y2732786D01*
X2310129Y2741929D01*
X2273808Y2741929D01*
X2255520Y2732786D01*
X2237486Y2714497D01*
X2228341Y2696463D01*
X2219197Y2669031D01*
X2219197Y2623565D01*
X2228341Y2596387D01*
X2237486Y2578100D01*
X2255520Y2560065D01*
X2273808Y2550921D01*
X2310129Y2550921D01*
X2328418Y2560065D01*
X2346452Y2578100D01*
X2355595Y2596387D01*
X2542793Y2714497D02*
G01*
X2524759Y2732786D01*
X2497327Y2741929D01*
X2461006Y2741929D01*
X2433827Y2732786D01*
X2415540Y2714497D01*
X2415540Y2696463D01*
X2424684Y2678176D01*
X2433827Y2669031D01*
X2452115Y2659887D01*
X2506472Y2641854D01*
X2524759Y2632710D01*
X2533904Y2623565D01*
X2542793Y2605531D01*
X2542793Y2578100D01*
X2524759Y2560065D01*
X2497327Y2550921D01*
X2461006Y2550921D01*
X2433827Y2560065D01*
X2415540Y2578100D01*
D17*
X2032000Y2475737D02*
G01*
X2032000Y2380234D01*
X2032000Y2475737D02*
G01*
X2072893Y2475737D01*
X2086609Y2471165D01*
X2091181Y2466594D01*
X2095754Y2457704D01*
X2095754Y2443987D01*
X2091181Y2434844D01*
X2086609Y2430271D01*
X2072893Y2425700D01*
X2032000Y2425700D01*
X2193797Y2453131D02*
G01*
X2189225Y2462276D01*
X2180081Y2471165D01*
X2171191Y2475737D01*
X2152904Y2475737D01*
X2143759Y2471165D01*
X2134615Y2462276D01*
X2130297Y2453131D01*
X2125725Y2439415D01*
X2125725Y2416810D01*
X2130297Y2403094D01*
X2134615Y2393950D01*
X2143759Y2384805D01*
X2152904Y2380234D01*
X2171191Y2380234D01*
X2180081Y2384805D01*
X2189225Y2393950D01*
X2193797Y2403094D01*
X2223770Y2475737D02*
G01*
X2223770Y2380234D01*
X2223770Y2475737D02*
G01*
X2264663Y2475737D01*
X2278379Y2471165D01*
X2282952Y2466594D01*
X2287524Y2457704D01*
X2287524Y2448560D01*
X2282952Y2439415D01*
X2278379Y2434844D01*
X2264663Y2430271D01*
X2223770Y2430271D02*
G01*
X2264663Y2430271D01*
X2278379Y2425700D01*
X2282952Y2421381D01*
X2287524Y2412237D01*
X2287524Y2398521D01*
X2282952Y2389378D01*
X2278379Y2384805D01*
X2264663Y2380234D01*
X2223770Y2380234D01*
X2441956Y2430271D02*
G01*
X2432811Y2439415D01*
X2423922Y2443987D01*
X2410206Y2443987D01*
X2401061Y2439415D01*
X2391918Y2430271D01*
X2387345Y2416810D01*
X2387345Y2407665D01*
X2391918Y2393950D01*
X2401061Y2384805D01*
X2410206Y2380234D01*
X2423922Y2380234D01*
X2432811Y2384805D01*
X2441956Y2393950D01*
X2494788Y2443987D02*
G01*
X2485643Y2439415D01*
X2476500Y2430271D01*
X2471927Y2416810D01*
X2471927Y2407665D01*
X2476500Y2393950D01*
X2485643Y2384805D01*
X2494788Y2380234D01*
X2508250Y2380234D01*
X2517393Y2384805D01*
X2526538Y2393950D01*
X2531109Y2407665D01*
X2531109Y2416810D01*
X2526538Y2430271D01*
X2517393Y2439415D01*
X2508250Y2443987D01*
X2494788Y2443987D01*
X2561081Y2443987D02*
G01*
X2561081Y2380234D01*
X2561081Y2425700D02*
G01*
X2574797Y2439415D01*
X2583941Y2443987D01*
X2597404Y2443987D01*
X2606547Y2439415D01*
X2611120Y2425700D01*
X2611120Y2380234D01*
X2641091Y2443987D02*
G01*
X2641091Y2380234D01*
X2641091Y2425700D02*
G01*
X2654808Y2439415D01*
X2663697Y2443987D01*
X2677413Y2443987D01*
X2686558Y2439415D01*
X2691129Y2425700D01*
X2691129Y2380234D01*
X2721102Y2416810D02*
G01*
X2775711Y2416810D01*
X2775711Y2425700D01*
X2771140Y2434844D01*
X2766568Y2439415D01*
X2757424Y2443987D01*
X2743708Y2443987D01*
X2734818Y2439415D01*
X2725674Y2430271D01*
X2721102Y2416810D01*
X2721102Y2407665D01*
X2725674Y2393950D01*
X2734818Y2384805D01*
X2743708Y2380234D01*
X2757424Y2380234D01*
X2766568Y2384805D01*
X2775711Y2393950D01*
X2805684Y2443987D02*
G01*
X2855722Y2380234D01*
X2855722Y2443987D02*
G01*
X2805684Y2380234D01*
X2885693Y2475737D02*
G01*
X2890265Y2471165D01*
X2894838Y2475737D01*
X2890265Y2480310D01*
X2885693Y2475737D01*
X2890265Y2443987D02*
G01*
X2890265Y2380234D01*
X2947415Y2443987D02*
G01*
X2938272Y2439415D01*
X2929381Y2430271D01*
X2924809Y2416810D01*
X2924809Y2407665D01*
X2929381Y2393950D01*
X2938272Y2384805D01*
X2947415Y2380234D01*
X2961131Y2380234D01*
X2970275Y2384805D01*
X2979165Y2393950D01*
X2983738Y2407665D01*
X2983738Y2416810D01*
X2979165Y2430271D01*
X2970275Y2439415D01*
X2961131Y2443987D01*
X2947415Y2443987D01*
X3013709Y2443987D02*
G01*
X3013709Y2380234D01*
X3013709Y2425700D02*
G01*
X3027425Y2439415D01*
X3036570Y2443987D01*
X3050286Y2443987D01*
X3059175Y2439415D01*
X3063747Y2425700D01*
X3063747Y2380234D01*
X2036572Y2262631D02*
G01*
X2036572Y2267204D01*
X2041143Y2276094D01*
X2045715Y2280665D01*
X2054606Y2285237D01*
X2072893Y2285237D01*
X2082038Y2280665D01*
X2086609Y2276094D01*
X2091181Y2267204D01*
X2091181Y2258060D01*
X2086609Y2248915D01*
X2077465Y2235200D01*
X2032000Y2189734D01*
X2095754Y2189734D01*
X2125725Y2267204D02*
G01*
X2134615Y2271776D01*
X2148331Y2285237D01*
X2148331Y2189734D01*
X2260091Y2303526D02*
G01*
X2178304Y2157984D01*
X2290063Y2267204D02*
G01*
X2299208Y2271776D01*
X2312924Y2285237D01*
X2312924Y2189734D01*
X2347468Y2262631D02*
G01*
X2347468Y2267204D01*
X2352040Y2276094D01*
X2356611Y2280665D01*
X2365756Y2285237D01*
X2383790Y2285237D01*
X2392934Y2280665D01*
X2397506Y2276094D01*
X2402077Y2267204D01*
X2402077Y2258060D01*
X2397506Y2248915D01*
X2388361Y2235200D01*
X2342895Y2189734D01*
X2406650Y2189734D01*
X2518409Y2303526D02*
G01*
X2436622Y2157984D01*
X2552954Y2262631D02*
G01*
X2552954Y2267204D01*
X2557525Y2276094D01*
X2562097Y2280665D01*
X2570988Y2285237D01*
X2589275Y2285237D01*
X2598420Y2280665D01*
X2602991Y2276094D01*
X2607563Y2267204D01*
X2607563Y2258060D01*
X2602991Y2248915D01*
X2593847Y2235200D01*
X2548381Y2189734D01*
X2611881Y2189734D01*
X2642108Y2267204D02*
G01*
X2650997Y2271776D01*
X2664713Y2285237D01*
X2664713Y2189734D01*
D18*
X2755900Y1992629D02*
G01*
X2755900Y1856231D01*
X2765043Y1828800D01*
X2783077Y1810765D01*
X2810509Y1801621D01*
X2828543Y1801621D01*
X2855975Y1810765D01*
X2874009Y1828800D01*
X2883154Y1856231D01*
X2883154Y1992629D01*
X3070352Y1965197D02*
G01*
X3052318Y1983486D01*
X3024886Y1992629D01*
X2988563Y1992629D01*
X2961386Y1983486D01*
X2943097Y1965197D01*
X2943097Y1947163D01*
X2952241Y1928876D01*
X2961386Y1919731D01*
X2979420Y1910587D01*
X3034029Y1892554D01*
X3052318Y1883410D01*
X3061461Y1874265D01*
X3070352Y1856231D01*
X3070352Y1828800D01*
X3052318Y1810765D01*
X3024886Y1801621D01*
X2988563Y1801621D01*
X2961386Y1810765D01*
X2943097Y1828800D01*
X3130550Y1992629D02*
G01*
X3130550Y1801621D01*
X3130550Y1992629D02*
G01*
X3212338Y1992629D01*
X3239515Y1983486D01*
X3248659Y1974342D01*
X3257804Y1956054D01*
X3257804Y1938020D01*
X3248659Y1919731D01*
X3239515Y1910587D01*
X3212338Y1901697D01*
X3130550Y1901697D02*
G01*
X3212338Y1901697D01*
X3239515Y1892554D01*
X3248659Y1883410D01*
X3257804Y1865121D01*
X3257804Y1837944D01*
X3248659Y1819910D01*
X3239515Y1810765D01*
X3212338Y1801621D01*
X3130550Y1801621D01*
D21*
X7085208Y2859420D02*
G01*
X7085208Y2750454D01*
X7085208Y2859420D02*
G01*
X7152772Y2859420D01*
X7085208Y2807604D02*
G01*
X7126864Y2807604D01*
X7085208Y2750454D02*
G01*
X7152772Y2750454D01*
X7259706Y2843926D02*
G01*
X7249292Y2854340D01*
X7233798Y2859420D01*
X7212970Y2859420D01*
X7197476Y2854340D01*
X7187062Y2843926D01*
X7187062Y2833512D01*
X7192142Y2823098D01*
X7197476Y2817764D01*
X7207890Y2812684D01*
X7238878Y2802270D01*
X7249292Y2797190D01*
X7254626Y2791856D01*
X7259706Y2781442D01*
X7259706Y2765948D01*
X7249292Y2755534D01*
X7233798Y2750454D01*
X7212970Y2750454D01*
X7197476Y2755534D01*
X7187062Y2765948D01*
X7293996Y2859420D02*
G01*
X7293996Y2750454D01*
X7293996Y2859420D02*
G01*
X7340732Y2859420D01*
X7356480Y2854340D01*
X7361560Y2849006D01*
X7366894Y2838592D01*
X7366894Y2823098D01*
X7361560Y2812684D01*
X7356480Y2807604D01*
X7340732Y2802270D01*
X7293996Y2802270D01*
X7411598Y2859420D02*
G01*
X7468748Y2859420D01*
X7437506Y2817764D01*
X7453000Y2817764D01*
X7463414Y2812684D01*
X7468748Y2807604D01*
X7473828Y2791856D01*
X7473828Y2781442D01*
X7468748Y2765948D01*
X7458334Y2755534D01*
X7442586Y2750454D01*
X7427092Y2750454D01*
X7411598Y2755534D01*
X7406264Y2760614D01*
X7401184Y2771028D01*
X7513198Y2833512D02*
G01*
X7513198Y2838592D01*
X7518532Y2849006D01*
X7523612Y2854340D01*
X7534026Y2859420D01*
X7554854Y2859420D01*
X7565268Y2854340D01*
X7570348Y2849006D01*
X7575682Y2838592D01*
X7575682Y2828178D01*
X7570348Y2817764D01*
X7560188Y2802270D01*
X7508118Y2750454D01*
X7580762Y2750454D01*
D17*
X1382908Y2588656D02*
G01*
X1382908Y2531506D01*
X1382908Y2588656D02*
G01*
X1404752Y2531506D01*
X1426596Y2588656D02*
G01*
X1404752Y2531506D01*
X1426596Y2588656D02*
G01*
X1426596Y2531506D01*
X1477396Y2580528D02*
G01*
X1474602Y2586116D01*
X1466474Y2588656D01*
X1460886Y2588656D01*
X1452758Y2586116D01*
X1447170Y2577734D01*
X1444630Y2564272D01*
X1444630Y2550556D01*
X1447170Y2539634D01*
X1452758Y2534300D01*
X1460886Y2531506D01*
X1463680Y2531506D01*
X1471808Y2534300D01*
X1477396Y2539634D01*
X1479936Y2547762D01*
X1479936Y2550556D01*
X1477396Y2558684D01*
X1471808Y2564272D01*
X1463680Y2566812D01*
X1460886Y2566812D01*
X1452758Y2564272D01*
X1447170Y2558684D01*
X1444630Y2550556D01*
X1514480Y2588656D02*
G01*
X1506098Y2586116D01*
X1500764Y2577734D01*
X1497970Y2564272D01*
X1497970Y2556144D01*
X1500764Y2542428D01*
X1506098Y2534300D01*
X1514480Y2531506D01*
X1519814Y2531506D01*
X1527942Y2534300D01*
X1533530Y2542428D01*
X1536070Y2556144D01*
X1536070Y2564272D01*
X1533530Y2577734D01*
X1527942Y2586116D01*
X1519814Y2588656D01*
X1514480Y2588656D01*
X1586870Y2588656D02*
G01*
X1559692Y2588656D01*
X1556898Y2564272D01*
X1559692Y2566812D01*
X1567820Y2569606D01*
X1575948Y2569606D01*
X1584076Y2566812D01*
X1589664Y2561478D01*
X1592458Y2553350D01*
X1592458Y2547762D01*
X1589664Y2539634D01*
X1584076Y2534300D01*
X1575948Y2531506D01*
X1567820Y2531506D01*
X1559692Y2534300D01*
X1556898Y2536840D01*
X1554104Y2542428D01*
X1626748Y2588656D02*
G01*
X1618620Y2586116D01*
X1613032Y2577734D01*
X1610238Y2564272D01*
X1610238Y2556144D01*
X1613032Y2542428D01*
X1618620Y2534300D01*
X1626748Y2531506D01*
X1632082Y2531506D01*
X1640464Y2534300D01*
X1645798Y2542428D01*
X1648592Y2556144D01*
X1648592Y2564272D01*
X1645798Y2577734D01*
X1640464Y2586116D01*
X1632082Y2588656D01*
X1626748Y2588656D01*
X1685676Y2599578D02*
G01*
X1680088Y2594244D01*
X1674754Y2586116D01*
X1669166Y2575194D01*
X1666626Y2561478D01*
X1666626Y2550556D01*
X1669166Y2536840D01*
X1674754Y2525918D01*
X1680088Y2517790D01*
X1685676Y2512456D01*
X1703710Y2577734D02*
G01*
X1709044Y2580528D01*
X1717172Y2588656D01*
X1717172Y2531506D01*
X1767972Y2580528D02*
G01*
X1765178Y2586116D01*
X1757050Y2588656D01*
X1751716Y2588656D01*
X1743334Y2586116D01*
X1738000Y2577734D01*
X1735206Y2564272D01*
X1735206Y2550556D01*
X1738000Y2539634D01*
X1743334Y2534300D01*
X1751716Y2531506D01*
X1754256Y2531506D01*
X1762638Y2534300D01*
X1767972Y2539634D01*
X1770766Y2547762D01*
X1770766Y2550556D01*
X1767972Y2558684D01*
X1762638Y2564272D01*
X1754256Y2566812D01*
X1751716Y2566812D01*
X1743334Y2564272D01*
X1738000Y2558684D01*
X1735206Y2550556D01*
X1788800Y2599578D02*
G01*
X1794134Y2594244D01*
X1799722Y2586116D01*
X1805056Y2575194D01*
X1807850Y2561478D01*
X1807850Y2550556D01*
X1805056Y2536840D01*
X1799722Y2525918D01*
X1794134Y2517790D01*
X1788800Y2512456D01*
X8485377Y4581652D02*
G01*
X8485377Y4538218D01*
X8482838Y4529836D01*
X8480043Y4527295D01*
X8474456Y4524502D01*
X8469122Y4524502D01*
X8463534Y4527295D01*
X8460993Y4529836D01*
X8458200Y4538218D01*
X8458200Y4543552D01*
X8541765Y4573523D02*
G01*
X8536177Y4579112D01*
X8528050Y4581652D01*
X8517127Y4581652D01*
X8509000Y4579112D01*
X8503411Y4573523D01*
X8503411Y4568189D01*
X8506206Y4562602D01*
X8509000Y4559807D01*
X8514334Y4557268D01*
X8530843Y4551679D01*
X8536177Y4549139D01*
X8538972Y4546345D01*
X8541765Y4540757D01*
X8541765Y4532629D01*
X8536177Y4527295D01*
X8528050Y4524502D01*
X8517127Y4524502D01*
X8509000Y4527295D01*
X8503411Y4532629D01*
X8559545Y4549139D02*
G01*
X8608822Y4549139D01*
X8648445Y4581652D02*
G01*
X8626856Y4524502D01*
X8648445Y4581652D02*
G01*
X8670290Y4524502D01*
X8634984Y4543552D02*
G01*
X8662161Y4543552D01*
X8688324Y4581652D02*
G01*
X8688324Y4524502D01*
X8688324Y4581652D02*
G01*
X8707374Y4581652D01*
X8715756Y4579112D01*
X8721090Y4573523D01*
X8723884Y4568189D01*
X8726677Y4559807D01*
X8726677Y4546345D01*
X8723884Y4538218D01*
X8721090Y4532629D01*
X8715756Y4527295D01*
X8707374Y4524502D01*
X8688324Y4524502D01*
X8763761Y4592573D02*
G01*
X8758174Y4587239D01*
X8752840Y4579112D01*
X8747252Y4568189D01*
X8744458Y4554473D01*
X8744458Y4543552D01*
X8747252Y4529836D01*
X8752840Y4518913D01*
X8758174Y4510786D01*
X8763761Y4505452D01*
X8784336Y4568189D02*
G01*
X8784336Y4570729D01*
X8787129Y4576318D01*
X8789924Y4579112D01*
X8795258Y4581652D01*
X8806179Y4581652D01*
X8811768Y4579112D01*
X8814308Y4576318D01*
X8817102Y4570729D01*
X8817102Y4565395D01*
X8814308Y4559807D01*
X8808974Y4551679D01*
X8781541Y4524502D01*
X8819895Y4524502D01*
X8843263Y4581652D02*
G01*
X8873236Y4581652D01*
X8856979Y4559807D01*
X8865108Y4559807D01*
X8870441Y4557268D01*
X8873236Y4554473D01*
X8876029Y4546345D01*
X8876029Y4540757D01*
X8873236Y4532629D01*
X8867902Y4527295D01*
X8859774Y4524502D01*
X8851391Y4524502D01*
X8843263Y4527295D01*
X8840470Y4529836D01*
X8837929Y4535423D01*
X8894063Y4592573D02*
G01*
X8899397Y4587239D01*
X8904986Y4579112D01*
X8910320Y4568189D01*
X8913113Y4554473D01*
X8913113Y4543552D01*
X8910320Y4529836D01*
X8904986Y4518913D01*
X8899397Y4510786D01*
X8894063Y4505452D01*
X458978Y4581652D02*
G01*
X458978Y4538218D01*
X456437Y4529836D01*
X453644Y4527295D01*
X448055Y4524502D01*
X442721Y4524502D01*
X437134Y4527295D01*
X434594Y4529836D01*
X431800Y4538218D01*
X431800Y4543552D01*
X515365Y4573523D02*
G01*
X509778Y4579112D01*
X501650Y4581652D01*
X490728Y4581652D01*
X482600Y4579112D01*
X477012Y4573523D01*
X477012Y4568189D01*
X479805Y4562602D01*
X482600Y4559807D01*
X487934Y4557268D01*
X504444Y4551679D01*
X509778Y4549139D01*
X512571Y4546345D01*
X515365Y4540757D01*
X515365Y4532629D01*
X509778Y4527295D01*
X501650Y4524502D01*
X490728Y4524502D01*
X482600Y4527295D01*
X477012Y4532629D01*
X533145Y4549139D02*
G01*
X582421Y4549139D01*
X622045Y4581652D02*
G01*
X600455Y4524502D01*
X622045Y4581652D02*
G01*
X643889Y4524502D01*
X608584Y4543552D02*
G01*
X635762Y4543552D01*
X702818Y4568189D02*
G01*
X700278Y4573523D01*
X694689Y4579112D01*
X689355Y4581652D01*
X678434Y4581652D01*
X672845Y4579112D01*
X667512Y4573523D01*
X664718Y4568189D01*
X661923Y4559807D01*
X661923Y4546345D01*
X664718Y4538218D01*
X667512Y4532629D01*
X672845Y4527295D01*
X678434Y4524502D01*
X689355Y4524502D01*
X694689Y4527295D01*
X700278Y4532629D01*
X702818Y4538218D01*
X702818Y4546345D01*
X689355Y4546345D02*
G01*
X702818Y4546345D01*
X739902Y4592573D02*
G01*
X734568Y4587239D01*
X728979Y4579112D01*
X723645Y4568189D01*
X720852Y4554473D01*
X720852Y4543552D01*
X723645Y4529836D01*
X728979Y4518913D01*
X734568Y4510786D01*
X739902Y4505452D01*
X760729Y4568189D02*
G01*
X760729Y4570729D01*
X763523Y4576318D01*
X766063Y4579112D01*
X771652Y4581652D01*
X782573Y4581652D01*
X787907Y4579112D01*
X790702Y4576318D01*
X793495Y4570729D01*
X793495Y4565395D01*
X790702Y4559807D01*
X785368Y4551679D01*
X757936Y4524502D01*
X796289Y4524502D01*
X814070Y4592573D02*
G01*
X819657Y4587239D01*
X824992Y4579112D01*
X830579Y4568189D01*
X833373Y4554473D01*
X833373Y4543552D01*
X830579Y4529836D01*
X824992Y4518913D01*
X819657Y4510786D01*
X814070Y4505452D01*
X685800Y1724152D02*
G01*
X685800Y1667002D01*
X685800Y1724152D02*
G01*
X721360Y1724152D01*
X685800Y1696973D02*
G01*
X707644Y1696973D01*
X685800Y1667002D02*
G01*
X721360Y1667002D01*
X755650Y1724152D02*
G01*
X747521Y1721612D01*
X741934Y1713229D01*
X739139Y1699768D01*
X739139Y1691639D01*
X741934Y1677923D01*
X747521Y1669795D01*
X755650Y1667002D01*
X760984Y1667002D01*
X769365Y1669795D01*
X774700Y1677923D01*
X777494Y1691639D01*
X777494Y1699768D01*
X774700Y1713229D01*
X769365Y1721612D01*
X760984Y1724152D01*
X755650Y1724152D01*
X800862Y1724152D02*
G01*
X830834Y1724152D01*
X814578Y1702307D01*
X822705Y1702307D01*
X828039Y1699768D01*
X830834Y1696973D01*
X833628Y1688845D01*
X833628Y1683257D01*
X830834Y1675129D01*
X825500Y1669795D01*
X817371Y1667002D01*
X808989Y1667002D01*
X800862Y1669795D01*
X798068Y1672336D01*
X795528Y1677923D01*
X851662Y1691639D02*
G01*
X900684Y1691639D01*
X918718Y1724152D02*
G01*
X918718Y1667002D01*
X918718Y1724152D02*
G01*
X943355Y1724152D01*
X951484Y1721612D01*
X954278Y1718818D01*
X956818Y1713229D01*
X956818Y1707895D01*
X954278Y1702307D01*
X951484Y1699768D01*
X943355Y1696973D01*
X918718Y1696973D01*
X937768Y1696973D02*
G01*
X956818Y1667002D01*
X1015745Y1710689D02*
G01*
X1012952Y1716023D01*
X1007618Y1721612D01*
X1002284Y1724152D01*
X991362Y1724152D01*
X985773Y1721612D01*
X980439Y1716023D01*
X977645Y1710689D01*
X974852Y1702307D01*
X974852Y1688845D01*
X977645Y1680718D01*
X980439Y1675129D01*
X985773Y1669795D01*
X991362Y1667002D01*
X1002284Y1667002D01*
X1007618Y1669795D01*
X1012952Y1675129D01*
X1015745Y1680718D01*
X1015745Y1688845D01*
X1002284Y1688845D02*
G01*
X1015745Y1688845D01*
X1052829Y1735073D02*
G01*
X1047495Y1729739D01*
X1041907Y1721612D01*
X1036573Y1710689D01*
X1033779Y1696973D01*
X1033779Y1686052D01*
X1036573Y1672336D01*
X1041907Y1661413D01*
X1047495Y1653286D01*
X1052829Y1647952D01*
X1076452Y1724152D02*
G01*
X1106423Y1724152D01*
X1089913Y1702307D01*
X1098042Y1702307D01*
X1103629Y1699768D01*
X1106423Y1696973D01*
X1108963Y1688845D01*
X1108963Y1683257D01*
X1106423Y1675129D01*
X1100836Y1669795D01*
X1092707Y1667002D01*
X1084579Y1667002D01*
X1076452Y1669795D01*
X1073657Y1672336D01*
X1070863Y1677923D01*
X1154429Y1724152D02*
G01*
X1126997Y1686052D01*
X1167892Y1686052D01*
X1154429Y1724152D02*
G01*
X1154429Y1667002D01*
X1185926Y1735073D02*
G01*
X1191513Y1729739D01*
X1196847Y1721612D01*
X1202436Y1710689D01*
X1204976Y1696973D01*
X1204976Y1686052D01*
X1202436Y1672336D01*
X1196847Y1661413D01*
X1191513Y1653286D01*
X1185926Y1647952D01*
X685800Y1863852D02*
G01*
X685800Y1806702D01*
X685800Y1863852D02*
G01*
X721360Y1863852D01*
X685800Y1836673D02*
G01*
X707644Y1836673D01*
X685800Y1806702D02*
G01*
X721360Y1806702D01*
X755650Y1863852D02*
G01*
X747521Y1861312D01*
X741934Y1852929D01*
X739139Y1839468D01*
X739139Y1831339D01*
X741934Y1817623D01*
X747521Y1809495D01*
X755650Y1806702D01*
X760984Y1806702D01*
X769365Y1809495D01*
X774700Y1817623D01*
X777494Y1831339D01*
X777494Y1839468D01*
X774700Y1852929D01*
X769365Y1861312D01*
X760984Y1863852D01*
X755650Y1863852D01*
X800862Y1863852D02*
G01*
X830834Y1863852D01*
X814578Y1842007D01*
X822705Y1842007D01*
X828039Y1839468D01*
X830834Y1836673D01*
X833628Y1828545D01*
X833628Y1822957D01*
X830834Y1814829D01*
X825500Y1809495D01*
X817371Y1806702D01*
X808989Y1806702D01*
X800862Y1809495D01*
X798068Y1812036D01*
X795528Y1817623D01*
X851662Y1831339D02*
G01*
X900684Y1831339D01*
X940562Y1863852D02*
G01*
X918718Y1806702D01*
X940562Y1863852D02*
G01*
X962405Y1806702D01*
X926845Y1825752D02*
G01*
X954278Y1825752D01*
X1021334Y1850389D02*
G01*
X1018539Y1855723D01*
X1012952Y1861312D01*
X1007618Y1863852D01*
X996695Y1863852D01*
X991362Y1861312D01*
X985773Y1855723D01*
X982979Y1850389D01*
X980439Y1842007D01*
X980439Y1828545D01*
X982979Y1820418D01*
X985773Y1814829D01*
X991362Y1809495D01*
X996695Y1806702D01*
X1007618Y1806702D01*
X1012952Y1809495D01*
X1018539Y1814829D01*
X1021334Y1820418D01*
X1021334Y1828545D01*
X1007618Y1828545D02*
G01*
X1021334Y1828545D01*
X1058418Y1874773D02*
G01*
X1052829Y1869439D01*
X1047495Y1861312D01*
X1041907Y1850389D01*
X1039368Y1836673D01*
X1039368Y1825752D01*
X1041907Y1812036D01*
X1047495Y1801113D01*
X1052829Y1792986D01*
X1058418Y1787652D01*
X1081786Y1863852D02*
G01*
X1111757Y1863852D01*
X1095502Y1842007D01*
X1103629Y1842007D01*
X1108963Y1839468D01*
X1111757Y1836673D01*
X1114552Y1828545D01*
X1114552Y1822957D01*
X1111757Y1814829D01*
X1106423Y1809495D01*
X1098042Y1806702D01*
X1089913Y1806702D01*
X1081786Y1809495D01*
X1078992Y1812036D01*
X1076452Y1817623D01*
X1165352Y1863852D02*
G01*
X1137920Y1863852D01*
X1135379Y1839468D01*
X1137920Y1842007D01*
X1146047Y1844802D01*
X1154429Y1844802D01*
X1162557Y1842007D01*
X1167892Y1836673D01*
X1170686Y1828545D01*
X1170686Y1822957D01*
X1167892Y1814829D01*
X1162557Y1809495D01*
X1154429Y1806702D01*
X1146047Y1806702D01*
X1137920Y1809495D01*
X1135379Y1812036D01*
X1132586Y1817623D01*
X1188720Y1874773D02*
G01*
X1194054Y1869439D01*
X1199642Y1861312D01*
X1204976Y1850389D01*
X1207770Y1836673D01*
X1207770Y1825752D01*
X1204976Y1812036D01*
X1199642Y1801113D01*
X1194054Y1792986D01*
X1188720Y1787652D01*
X8153400Y1863852D02*
G01*
X8153400Y1806702D01*
X8153400Y1863852D02*
G01*
X8188959Y1863852D01*
X8153400Y1836673D02*
G01*
X8175243Y1836673D01*
X8153400Y1806702D02*
G01*
X8188959Y1806702D01*
X8223250Y1863852D02*
G01*
X8215122Y1861312D01*
X8209534Y1852929D01*
X8206740Y1839468D01*
X8206740Y1831339D01*
X8209534Y1817623D01*
X8215122Y1809495D01*
X8223250Y1806702D01*
X8228584Y1806702D01*
X8236965Y1809495D01*
X8242300Y1817623D01*
X8245093Y1831339D01*
X8245093Y1839468D01*
X8242300Y1852929D01*
X8236965Y1861312D01*
X8228584Y1863852D01*
X8223250Y1863852D01*
X8268461Y1863852D02*
G01*
X8298434Y1863852D01*
X8282177Y1842007D01*
X8290306Y1842007D01*
X8295640Y1839468D01*
X8298434Y1836673D01*
X8301227Y1828545D01*
X8301227Y1822957D01*
X8298434Y1814829D01*
X8293100Y1809495D01*
X8284972Y1806702D01*
X8276590Y1806702D01*
X8268461Y1809495D01*
X8265668Y1812036D01*
X8263127Y1817623D01*
X8319261Y1831339D02*
G01*
X8368284Y1831339D01*
X8408161Y1863852D02*
G01*
X8386318Y1806702D01*
X8408161Y1863852D02*
G01*
X8430006Y1806702D01*
X8394445Y1825752D02*
G01*
X8421877Y1825752D01*
X8448040Y1863852D02*
G01*
X8448040Y1806702D01*
X8448040Y1863852D02*
G01*
X8467090Y1863852D01*
X8475218Y1861312D01*
X8480552Y1855723D01*
X8483345Y1850389D01*
X8486140Y1842007D01*
X8486140Y1828545D01*
X8483345Y1820418D01*
X8480552Y1814829D01*
X8475218Y1809495D01*
X8467090Y1806702D01*
X8448040Y1806702D01*
X8523224Y1874773D02*
G01*
X8517890Y1869439D01*
X8512302Y1861312D01*
X8506968Y1850389D01*
X8504174Y1836673D01*
X8504174Y1825752D01*
X8506968Y1812036D01*
X8512302Y1801113D01*
X8517890Y1792986D01*
X8523224Y1787652D01*
X8546591Y1863852D02*
G01*
X8576563Y1863852D01*
X8560308Y1842007D01*
X8568436Y1842007D01*
X8574024Y1839468D01*
X8576563Y1836673D01*
X8579358Y1828545D01*
X8579358Y1822957D01*
X8576563Y1814829D01*
X8571229Y1809495D01*
X8563102Y1806702D01*
X8554974Y1806702D01*
X8546591Y1809495D01*
X8544052Y1812036D01*
X8541258Y1817623D01*
X8630158Y1855723D02*
G01*
X8627363Y1861312D01*
X8619236Y1863852D01*
X8613647Y1863852D01*
X8605520Y1861312D01*
X8600186Y1852929D01*
X8597391Y1839468D01*
X8597391Y1825752D01*
X8600186Y1814829D01*
X8605520Y1809495D01*
X8613647Y1806702D01*
X8616441Y1806702D01*
X8624570Y1809495D01*
X8630158Y1814829D01*
X8632952Y1822957D01*
X8632952Y1825752D01*
X8630158Y1833879D01*
X8624570Y1839468D01*
X8616441Y1842007D01*
X8613647Y1842007D01*
X8605520Y1839468D01*
X8600186Y1833879D01*
X8597391Y1825752D01*
X8650731Y1874773D02*
G01*
X8656320Y1869439D01*
X8661654Y1861312D01*
X8667241Y1850389D01*
X8670036Y1836673D01*
X8670036Y1825752D01*
X8667241Y1812036D01*
X8661654Y1801113D01*
X8656320Y1792986D01*
X8650731Y1787652D01*
X8153400Y1724152D02*
G01*
X8153400Y1667002D01*
X8153400Y1724152D02*
G01*
X8188959Y1724152D01*
X8153400Y1696973D02*
G01*
X8175243Y1696973D01*
X8153400Y1667002D02*
G01*
X8188959Y1667002D01*
X8223250Y1724152D02*
G01*
X8215122Y1721612D01*
X8209534Y1713229D01*
X8206740Y1699768D01*
X8206740Y1691639D01*
X8209534Y1677923D01*
X8215122Y1669795D01*
X8223250Y1667002D01*
X8228584Y1667002D01*
X8236965Y1669795D01*
X8242300Y1677923D01*
X8245093Y1691639D01*
X8245093Y1699768D01*
X8242300Y1713229D01*
X8236965Y1721612D01*
X8228584Y1724152D01*
X8223250Y1724152D01*
X8268461Y1724152D02*
G01*
X8298434Y1724152D01*
X8282177Y1702307D01*
X8290306Y1702307D01*
X8295640Y1699768D01*
X8298434Y1696973D01*
X8301227Y1688845D01*
X8301227Y1683257D01*
X8298434Y1675129D01*
X8293100Y1669795D01*
X8284972Y1667002D01*
X8276590Y1667002D01*
X8268461Y1669795D01*
X8265668Y1672336D01*
X8263127Y1677923D01*
X8319261Y1691639D02*
G01*
X8368284Y1691639D01*
X8386318Y1724152D02*
G01*
X8386318Y1667002D01*
X8386318Y1724152D02*
G01*
X8410956Y1724152D01*
X8419084Y1721612D01*
X8421877Y1718818D01*
X8424418Y1713229D01*
X8424418Y1707895D01*
X8421877Y1702307D01*
X8419084Y1699768D01*
X8410956Y1696973D01*
X8386318Y1696973D01*
X8405368Y1696973D02*
G01*
X8424418Y1667002D01*
X8442452Y1724152D02*
G01*
X8442452Y1667002D01*
X8442452Y1724152D02*
G01*
X8461502Y1724152D01*
X8469884Y1721612D01*
X8475218Y1716023D01*
X8478011Y1710689D01*
X8480552Y1702307D01*
X8480552Y1688845D01*
X8478011Y1680718D01*
X8475218Y1675129D01*
X8469884Y1669795D01*
X8461502Y1667002D01*
X8442452Y1667002D01*
X8517890Y1735073D02*
G01*
X8512302Y1729739D01*
X8506968Y1721612D01*
X8501379Y1710689D01*
X8498586Y1696973D01*
X8498586Y1686052D01*
X8501379Y1672336D01*
X8506968Y1661413D01*
X8512302Y1653286D01*
X8517890Y1647952D01*
X8541258Y1724152D02*
G01*
X8571229Y1724152D01*
X8554974Y1702307D01*
X8563102Y1702307D01*
X8568436Y1699768D01*
X8571229Y1696973D01*
X8574024Y1688845D01*
X8574024Y1683257D01*
X8571229Y1675129D01*
X8565641Y1669795D01*
X8557513Y1667002D01*
X8549386Y1667002D01*
X8541258Y1669795D01*
X8538463Y1672336D01*
X8535670Y1677923D01*
X8627363Y1705102D02*
G01*
X8624570Y1696973D01*
X8619236Y1691639D01*
X8611108Y1688845D01*
X8608313Y1688845D01*
X8600186Y1691639D01*
X8594597Y1696973D01*
X8592058Y1705102D01*
X8592058Y1707895D01*
X8594597Y1716023D01*
X8600186Y1721612D01*
X8608313Y1724152D01*
X8611108Y1724152D01*
X8619236Y1721612D01*
X8624570Y1716023D01*
X8627363Y1705102D01*
X8627363Y1691639D01*
X8624570Y1677923D01*
X8619236Y1669795D01*
X8611108Y1667002D01*
X8605520Y1667002D01*
X8597391Y1669795D01*
X8594597Y1675129D01*
X8645397Y1735073D02*
G01*
X8650731Y1729739D01*
X8656320Y1721612D01*
X8661654Y1710689D01*
X8664447Y1696973D01*
X8664447Y1686052D01*
X8661654Y1672336D01*
X8656320Y1661413D01*
X8650731Y1653286D01*
X8645397Y1647952D01*
D15*
X3365500Y381000D02*
G01*
X3175000Y381000D01*
X3175000Y127000D01*
X6985000Y127000D01*
X6985000Y381000D01*
D16*
X6985000Y381000D02*
G01*
X3365500Y381000D01*
D15*
X3364108Y2921904D02*
G01*
X3173608Y2921904D01*
X3173608Y2667904D01*
X6983608Y2667904D01*
X6983608Y2921904D01*
D16*
X6983608Y2921904D02*
G01*
X3364108Y2921904D01*
D10*
X1903608Y2921904D02*
G01*
X824108Y2921904D01*
X892451Y2921904D02*
G01*
X892451Y2667904D01*
X824108Y2921904D02*
G01*
X633608Y2921904D01*
X633608Y2667904D01*
X1903608Y2667904D01*
X1903608Y2921904D01*
X8489000Y4191000D02*
G01*
X8489000Y4445000D01*
X9290999Y4191000D02*
G01*
X8489000Y4191000D01*
X9290999Y4445000D02*
G01*
X8489000Y4445000D01*
X9017894Y4191000D02*
G01*
X9017894Y4445000D01*
X9290999Y4191000D02*
G01*
X9290999Y4445000D01*
X908999Y4445000D02*
G01*
X908999Y4191000D01*
X107000Y4445000D02*
G01*
X908999Y4445000D01*
X107000Y4191000D02*
G01*
X908999Y4191000D01*
X380105Y4445000D02*
G01*
X380105Y4191000D01*
X107000Y4445000D02*
G01*
X107000Y4191000D01*
X1924999Y1651000D02*
G01*
X1924999Y1397000D01*
X107000Y1651000D02*
G01*
X1924999Y1651000D01*
X107000Y1397000D02*
G01*
X1924999Y1397000D01*
X380105Y1651000D02*
G01*
X380105Y1397000D01*
X107000Y1651000D02*
G01*
X107000Y1397000D01*
X1924999Y2159000D02*
G01*
X1924999Y1905000D01*
X107000Y2159000D02*
G01*
X1924999Y2159000D01*
X107000Y1905000D02*
G01*
X1924999Y1905000D01*
X380105Y2159000D02*
G01*
X380105Y1905000D01*
X107000Y2159000D02*
G01*
X107000Y1905000D01*
X7473000Y1905000D02*
G01*
X7473000Y2159000D01*
X9290999Y1905000D02*
G01*
X7473000Y1905000D01*
X9290999Y2159000D02*
G01*
X7473000Y2159000D01*
X9017894Y1905000D02*
G01*
X9017894Y2159000D01*
X9290999Y1905000D02*
G01*
X9290999Y2159000D01*
X7473000Y1397000D02*
G01*
X7473000Y1651000D01*
X9290999Y1397000D02*
G01*
X7473000Y1397000D01*
X9290999Y1651000D02*
G01*
X7473000Y1651000D01*
X9017894Y1397000D02*
G01*
X9017894Y1651000D01*
X9290999Y1397000D02*
G01*
X9290999Y1651000D01*
G36*
X1268603Y4699000D02*
G01*
X8128000Y4699000D01*
X8128000Y3048914D01*
X1268603Y3048914D01*
G37*
G36*
X0Y1270000D02*
G01*
X2032000Y1270000D01*
X2032000Y0D01*
X0Y0D01*
G37*
G36*
X7366000Y1270000D02*
G01*
X9398000Y1270000D01*
X9398000Y0D01*
X7366000Y0D01*
G37*
G36*
X2679700Y2095500D02*
G01*
X3327400Y2095500D01*
X3327400Y2070100D01*
X2679700Y2070100D01*
G37*
G36*
X2679700Y2095500D02*
G01*
X2705100Y2095500D01*
X2705100Y1714500D01*
X2679700Y1714500D01*
G37*
G36*
X2679700Y1739900D02*
G01*
X3327400Y1739900D01*
X3327400Y1714500D01*
X2679700Y1714500D01*
G37*
G36*
X3302000Y2095500D02*
G01*
X3327400Y2095500D01*
X3327400Y1714500D01*
X3302000Y1714500D01*
G37*
G36*
X8229600Y3683000D02*
G01*
X9296400Y3683000D01*
X9296400Y3657600D01*
X8229600Y3657600D01*
G37*
G36*
X9271000Y3683000D02*
G01*
X9296400Y3683000D01*
X9296400Y3429000D01*
X9271000Y3429000D01*
G37*
G36*
X8229600Y3454400D02*
G01*
X9296400Y3454400D01*
X9296400Y3429000D01*
X8229600Y3429000D01*
G37*
G36*
X8229600Y3683000D02*
G01*
X8255000Y3683000D01*
X8255000Y3429000D01*
X8229600Y3429000D01*
G37*
G36*
X8229600Y2921000D02*
G01*
X9296400Y2921000D01*
X9296400Y2895600D01*
X8229600Y2895600D01*
G37*
G36*
X8229600Y2692400D02*
G01*
X9296400Y2692400D01*
X9296400Y2667000D01*
X8229600Y2667000D01*
G37*
G36*
X8229600Y2921000D02*
G01*
X8255000Y2921000D01*
X8255000Y2667000D01*
X8229600Y2667000D01*
G37*
G36*
X9271000Y2921000D02*
G01*
X9296400Y2921000D01*
X9296400Y2667000D01*
X9271000Y2667000D01*
G37*
G36*
X9004300Y3683000D02*
G01*
X9029700Y3683000D01*
X9029700Y3429000D01*
X9004300Y3429000D01*
G37*
G36*
X9004300Y2921000D02*
G01*
X9029700Y2921000D01*
X9029700Y2667000D01*
X9004300Y2667000D01*
G37*
G36*
X88900Y3683000D02*
G01*
X1155700Y3683000D01*
X1155700Y3657600D01*
X88900Y3657600D01*
G37*
G36*
X88900Y3683000D02*
G01*
X114300Y3683000D01*
X114300Y3429000D01*
X88900Y3429000D01*
G37*
G36*
X88900Y3454400D02*
G01*
X1155700Y3454400D01*
X1155700Y3429000D01*
X88900Y3429000D01*
G37*
G36*
X368300Y3683000D02*
G01*
X393700Y3683000D01*
X393700Y3429000D01*
X368300Y3429000D01*
G37*
G36*
X1130300Y3683000D02*
G01*
X1155700Y3683000D01*
X1155700Y3429000D01*
X1130300Y3429000D01*
G37*
M02*
