G04 Layer: BottomLayer*
G04 EasyEDA v6.4.25, 2021-12-23T20:24:24+01:00*
G04 885e605b81e8423a9881650ee7ee1bea,7297f3df0b98496e9ffcb7c94425d3c9,10*
G04 Gerber Generator version 0.2*
G04 Scale: 100 percent, Rotated: No, Reflected: No *
G04 Dimensions in millimeters *
G04 leading zeros omitted , absolute positions ,4 integer and 5 decimal *
%FSLAX45Y45*%
%MOMM*%

%ADD10C,0.2540*%
%ADD11C,2.0000*%
%ADD12C,1.0000*%
%ADD13C,1.5000*%
%ADD14C,0.7500*%

%LPD*%
D12*
X508000Y2286000D02*
G01*
X76200Y2286000D01*
X9144000Y4318000D02*
G01*
X9321800Y4305300D01*
X9321800Y2032000D01*
X9144000Y2032000D01*
X9144000Y2286000D02*
G01*
X9321800Y2286000D01*
D13*
X9144000Y2286000D02*
G01*
X8890000Y2286000D01*
D12*
X8636000Y2540000D02*
G01*
X8382000Y2286000D01*
X8636000Y2286000D02*
G01*
X8636000Y2286000D01*
X8890000Y2540000D01*
X8890000Y2794000D01*
X6350000Y254000D02*
G01*
X6350000Y759968D01*
X1524000Y2032000D02*
G01*
X1524000Y1778980D01*
X1524000Y1778980D02*
G01*
X1524000Y1524000D01*
X1778000Y1778980D02*
G01*
X1778000Y1524000D01*
X508000Y1778000D02*
G01*
X508000Y1524000D01*
X8890000Y1778000D02*
G01*
X8890000Y1524000D01*
X7620000Y1524000D02*
G01*
X7620000Y1777827D01*
X3302000Y2288702D02*
G01*
X3302000Y2794000D01*
X508000Y2032000D02*
G01*
X254000Y1778000D01*
X8890000Y4064000D02*
G01*
X8636000Y4318000D01*
X8382000Y4064000D02*
G01*
X8382000Y3810000D01*
X8636000Y4064000D02*
G01*
X8382000Y4064000D01*
X9144000Y3302000D02*
G01*
X9144000Y3556000D01*
X6858000Y2794000D02*
G01*
X6858000Y2288794D01*
X6604000Y2288702D02*
G01*
X6604000Y2794000D01*
X9144000Y2540000D02*
G01*
X9144000Y2794000D01*
X254000Y3302000D02*
G01*
X254000Y3556000D01*
X8382000Y3302000D02*
G01*
X8382000Y3556000D01*
X1270000Y1524000D02*
G01*
X1016000Y1524000D01*
X8890000Y2032000D02*
G01*
X9144000Y1778000D01*
D10*
X1016000Y2282992D02*
G01*
X1016000Y2542037D01*
D14*
X1016000Y2032000D02*
G01*
X1016000Y2282992D01*
D12*
X3810000Y2794000D02*
G01*
X3810000Y2288794D01*
X4051300Y2288702D02*
G01*
X4064000Y2794000D01*
X4064000Y2794000D01*
X4318000Y2794000D02*
G01*
X4318000Y2288794D01*
X4572000Y2288702D02*
G01*
X4572000Y2794000D01*
X4826000Y2794000D02*
G01*
X4826000Y2288794D01*
X5080000Y2288702D02*
G01*
X5080000Y2794000D01*
X5334000Y2794000D02*
G01*
X5334000Y2288794D01*
X5588000Y2288702D02*
G01*
X5588000Y2794000D01*
X5842000Y2794000D02*
G01*
X5842000Y2288794D01*
X6096000Y2288702D02*
G01*
X6096000Y2794000D01*
X6350000Y2794000D02*
G01*
X6350000Y2288794D01*
X6858000Y254000D02*
G01*
X6858000Y759968D01*
X6604000Y760001D02*
G01*
X6604000Y254000D01*
X6604000Y1524000D02*
G01*
X6604000Y1270000D01*
X6604000Y1524000D02*
G01*
X6604000Y1778000D01*
X6108700Y760001D02*
G01*
X6108700Y266700D01*
X6096000Y254000D01*
X5842000Y254000D02*
G01*
X5842000Y759968D01*
X5600700Y759968D02*
G01*
X5588000Y254000D01*
X5334000Y254000D02*
G01*
X5334000Y759968D01*
X5080000Y760001D02*
G01*
X5080000Y254000D01*
X4826000Y254000D02*
G01*
X4826000Y759968D01*
X4572000Y760001D02*
G01*
X4572000Y254000D01*
X4318000Y254000D02*
G01*
X4318000Y759968D01*
X4064000Y760001D02*
G01*
X4064000Y254000D01*
X3810000Y254000D02*
G01*
X3810000Y759968D01*
X6604000Y1270000D02*
G01*
X6604000Y760003D01*
X5842000Y760003D02*
G01*
X5842000Y1282700D01*
X5842000Y1778000D02*
G01*
X5842000Y1524000D01*
X5842000Y1282700D02*
G01*
X5842000Y1524000D01*
D13*
X3302000Y1270000D02*
G01*
X3302000Y1524000D01*
X3302000Y1270000D02*
G01*
X3302000Y1016000D01*
X3302000Y1016000D02*
G01*
X3302000Y758776D01*
X3556000Y2794000D02*
G01*
X3556000Y2538905D01*
X3556000Y2291407D02*
G01*
X3556000Y2028004D01*
X3556000Y2538905D02*
G01*
X3556000Y2291407D01*
X3556000Y2028004D02*
G01*
X3556000Y1777390D01*
X3556000Y1777390D02*
G01*
X3556000Y1269390D01*
X3556000Y1269390D02*
G01*
X3556000Y1012004D01*
X3556000Y502201D02*
G01*
X3556000Y254000D01*
X3556000Y1012004D02*
G01*
X3556000Y758002D01*
X3302000Y758776D02*
G01*
X3302000Y254000D01*
X3556000Y758002D02*
G01*
X3556000Y502201D01*
D12*
X8382000Y3302000D02*
G01*
X8382000Y3048000D01*
X8382000Y2540000D02*
G01*
X8382000Y2794000D01*
X8128000Y2540000D02*
G01*
X8382000Y2540000D01*
X8382000Y2032000D02*
G01*
X8382000Y2286000D01*
X7874000Y2032000D02*
G01*
X7874000Y1778767D01*
X7874000Y1778767D02*
G01*
X7874000Y1524000D01*
X7620000Y1777827D02*
G01*
X7620000Y2032000D01*
X8128000Y2032000D02*
G01*
X8128000Y1524000D01*
X8128000Y2032000D02*
G01*
X8382000Y2032000D01*
X8128000Y1524000D02*
G01*
X8382000Y1524000D01*
X8636000Y3302000D02*
G01*
X8636000Y2540000D01*
X8382000Y1524000D02*
G01*
X8382000Y2032000D01*
X8890000Y2794000D02*
G01*
X8890000Y3556000D01*
X8890000Y3556000D02*
G01*
X8890000Y4064000D01*
X9144000Y3810000D02*
G01*
X9144000Y4064000D01*
X8890000Y4318000D01*
X9144000Y3048000D02*
G01*
X9321800Y3048000D01*
X9144000Y2032000D02*
G01*
X9321800Y2032000D01*
X9321800Y1524000D01*
X9144000Y1524000D01*
X8636000Y2032000D02*
G01*
X8636000Y1524000D01*
X508000Y4318000D02*
G01*
X508000Y4318000D01*
X254000Y4051300D01*
X254000Y3810000D01*
X762000Y4318000D02*
G01*
X508000Y4064000D01*
X762000Y4064000D02*
G01*
X762000Y4064000D01*
X1016000Y4064000D01*
X1016000Y4064000D02*
G01*
X1016000Y3810000D01*
X508000Y3556000D02*
G01*
X508000Y4064000D01*
X762000Y3302000D02*
G01*
X762000Y3048000D01*
X1016000Y2794000D01*
X1016000Y3048000D02*
G01*
X1016000Y3302000D01*
X1016000Y3302000D02*
G01*
X1016000Y3556000D01*
X254000Y2032000D02*
G01*
X76200Y2032000D01*
X76200Y4318000D01*
X254000Y4318000D01*
X254000Y3048000D02*
G01*
X76200Y3048000D01*
X1016000Y2032000D02*
G01*
X1016000Y1524000D01*
X1270000Y2032000D02*
G01*
X1016000Y2032000D01*
X1270000Y2794000D02*
G01*
X1270000Y2540000D01*
X1016000Y2542037D02*
G01*
X1016000Y2794000D01*
D13*
X1016000Y2542037D02*
G01*
X1016000Y2282992D01*
X762000Y2287696D02*
G01*
X762000Y2538227D01*
X508000Y2540000D02*
G01*
X508000Y2286000D01*
D12*
X1270000Y2032000D02*
G01*
X1270000Y1524000D01*
X254000Y2032000D02*
G01*
X76200Y2032000D01*
X76200Y1524000D01*
X254000Y1524000D01*
X1778000Y2032000D02*
G01*
X1778000Y1778980D01*
X1524000Y2032000D02*
G01*
X1524000Y2794000D01*
X1778000Y2032000D02*
G01*
X1778000Y2794000D01*
X762000Y2032000D02*
G01*
X762000Y2287696D01*
X762000Y2032000D02*
G01*
X762000Y1524000D01*
X762000Y2538227D02*
G01*
X762000Y2794000D01*
X762000Y2794000D02*
G01*
X508000Y3048000D01*
X508000Y3556000D01*
X8636000Y2032000D02*
G01*
X8636000Y2286000D01*
D11*
G01*
X6858000Y254000D03*
G01*
X6604000Y254000D03*
G01*
X6350000Y254000D03*
G01*
X6096000Y254000D03*
G01*
X5842000Y254000D03*
G01*
X5588000Y254000D03*
G01*
X5334000Y254000D03*
G01*
X5080000Y254000D03*
G01*
X4826000Y254000D03*
G01*
X4572000Y254000D03*
G01*
X4318000Y254000D03*
G01*
X4064000Y254000D03*
G01*
X3810000Y254000D03*
G01*
X3556000Y254000D03*
G01*
X3302000Y254000D03*
G01*
X6856602Y2794914D03*
G01*
X6602602Y2794914D03*
G01*
X6348602Y2794914D03*
G01*
X6094602Y2794914D03*
G01*
X5840602Y2794914D03*
G01*
X5586602Y2794914D03*
G01*
X5332602Y2794914D03*
G01*
X5078602Y2794914D03*
G01*
X4824602Y2794914D03*
G01*
X4570602Y2794914D03*
G01*
X4316602Y2794914D03*
G01*
X4062602Y2794914D03*
G01*
X3808602Y2794914D03*
G01*
X3554602Y2794914D03*
G01*
X3300602Y2794914D03*
G01*
X1776603Y2794914D03*
G01*
X1522603Y2794914D03*
G01*
X1268603Y2794914D03*
G01*
X1014603Y2794914D03*
G01*
X760603Y2794914D03*
G01*
X8636000Y4318000D03*
G01*
X8890000Y4318000D03*
G01*
X9144000Y4318000D03*
G01*
X762000Y4318000D03*
G01*
X508000Y4318000D03*
G01*
X254000Y4318000D03*
G01*
X1778000Y1524000D03*
G01*
X1524000Y1524000D03*
G01*
X1270000Y1524000D03*
G01*
X1016000Y1524000D03*
G01*
X762000Y1524000D03*
G01*
X508000Y1524000D03*
G01*
X254000Y1524000D03*
G01*
X1778000Y2032000D03*
G01*
X1524000Y2032000D03*
G01*
X1270000Y2032000D03*
G01*
X1016000Y2032000D03*
G01*
X762000Y2032000D03*
G01*
X508000Y2032000D03*
G01*
X254000Y2032000D03*
G01*
X7620000Y2032000D03*
G01*
X7874000Y2032000D03*
G01*
X8128000Y2032000D03*
G01*
X8382000Y2032000D03*
G01*
X8636000Y2032000D03*
G01*
X8890000Y2032000D03*
G01*
X9144000Y2032000D03*
G01*
X7620000Y1524000D03*
G01*
X7874000Y1524000D03*
G01*
X8128000Y1524000D03*
G01*
X8382000Y1524000D03*
G01*
X8636000Y1524000D03*
G01*
X8890000Y1524000D03*
G01*
X9144000Y1524000D03*
G01*
X508000Y1778000D03*
G01*
X254000Y1778000D03*
G01*
X1524000Y1778990D03*
G01*
X1778000Y1778990D03*
G01*
X1270000Y2540000D03*
G01*
X9144000Y1778000D03*
G01*
X8890000Y1778000D03*
G01*
X7620000Y1777822D03*
G01*
X7874000Y1778762D03*
G01*
X9144000Y2540000D03*
G01*
X9144000Y2286000D03*
G01*
X8382000Y2540000D03*
G01*
X8382000Y2286000D03*
G01*
X9144000Y3302000D03*
G01*
X9144000Y3048000D03*
G01*
X8382000Y3048000D03*
G01*
X8382000Y3302000D03*
G01*
X8636000Y3302000D03*
G01*
X8128000Y2540000D03*
G01*
X8636000Y4064000D03*
G01*
X8382000Y4064000D03*
G01*
X8382000Y3810000D03*
G01*
X9144000Y3810000D03*
G01*
X8890000Y4064000D03*
G01*
X508000Y4064000D03*
G01*
X762000Y4064000D03*
G01*
X1016000Y4064000D03*
G01*
X1016000Y3810000D03*
G01*
X254000Y3810000D03*
G01*
X254000Y3302000D03*
G01*
X254000Y3048000D03*
G01*
X1016000Y3302000D03*
G01*
X1016000Y3048000D03*
G01*
X762000Y3302000D03*
G01*
X5842000Y1524000D03*
G01*
X6604000Y1524000D03*
G01*
X6604000Y1270000D03*
G01*
X5842000Y1282700D03*
G01*
X3556000Y2028012D03*
G01*
X3556000Y1777390D03*
G01*
X3556000Y1269390D03*
G01*
X3556000Y1012012D03*
G01*
X3810000Y759993D03*
G01*
X4064000Y759993D03*
G01*
X4318000Y759993D03*
G01*
X4572000Y759993D03*
G01*
X5080000Y759993D03*
G01*
X5334000Y759993D03*
G01*
X4826000Y759993D03*
G01*
X5600700Y759993D03*
G01*
X5842000Y759993D03*
G01*
X3556000Y1524000D03*
G01*
X3556000Y759993D03*
G01*
X3556000Y2288692D03*
G01*
X3302000Y1016000D03*
G01*
X3302000Y1270000D03*
G01*
X6108700Y759993D03*
G01*
X6350000Y759993D03*
G01*
X6604000Y759993D03*
G01*
X6858000Y759993D03*
G01*
X6604000Y2288692D03*
G01*
X6350000Y2288692D03*
G01*
X6096000Y2288692D03*
G01*
X5842000Y2288692D03*
G01*
X5588000Y2288692D03*
G01*
X5334000Y2288692D03*
G01*
X5080000Y2288692D03*
G01*
X4826000Y2288692D03*
G01*
X4572000Y2288692D03*
G01*
X4318000Y2288692D03*
G01*
X4051300Y2288692D03*
G01*
X3810000Y2288692D03*
G01*
X3302000Y2288692D03*
G01*
X6858000Y2288692D03*
G01*
X508000Y2286000D03*
G01*
X762000Y2287701D03*
G01*
X1016000Y2283002D03*
G01*
X8636000Y2540000D03*
G01*
X8636000Y2286000D03*
G01*
X8890000Y2286000D03*
G01*
X508000Y2540000D03*
G01*
X762000Y2538221D03*
G01*
X1016000Y2542031D03*
G01*
X3302000Y758774D03*
G01*
X3302000Y1524000D03*
G01*
X5842000Y1778000D03*
G01*
X6604000Y1778000D03*
G01*
X3556000Y2538907D03*
G01*
X3556000Y502208D03*
G01*
X8382000Y3556000D03*
G01*
X9144000Y3556000D03*
G01*
X8890000Y3556000D03*
G01*
X9144000Y2794000D03*
G01*
X8382000Y2794000D03*
G01*
X8890000Y2794000D03*
G01*
X1016000Y3556000D03*
G01*
X508000Y3556000D03*
G01*
X254000Y3556000D03*
M02*
