M48
METRIC,LZ,000.000
;FILE_FORMAT=3:3
;TYPE=PLATED
;Layer: Drill PTH
;EasyEDA v6.4.25, 2021-12-23T20:24:24+01:00
;885e605b81e8423a9881650ee7ee1bea,7297f3df0b98496e9ffcb7c94425d3c9,10
;Gerber Generator version 0.2
;Holesize 1 = 0.800 mm
T01C0.800
%
G05
G90
T01
X068580Y002540
X066040Y002540
X063500Y002540
X060960Y002540
X058420Y002540
X055880Y002540
X053340Y002540
X050800Y002540
X048260Y002540
X045720Y002540
X043180Y002540
X040640Y002540
X038100Y002540
X035560Y002540
X033020Y002540
X068566Y027949
X066026Y027949
X063486Y027949
X060946Y027949
X058406Y027949
X055866Y027949
X053326Y027949
X050786Y027949
X048246Y027949
X045706Y027949
X043166Y027949
X040626Y027949
X038086Y027949
X035546Y027949
X033006Y027949
X017766Y027949
X015226Y027949
X012686Y027949
X010146Y027949
X007606Y027949
X086360Y043180
X088900Y043180
X091440Y043180
X007620Y043180
X005080Y043180
X002540Y043180
X017780Y015240
X015240Y015240
X012700Y015240
X010160Y015240
X007620Y015240
X005080Y015240
X002540Y015240
X017780Y020320
X015240Y020320
X012700Y020320
X010160Y020320
X007620Y020320
X005080Y020320
X002540Y020320
X076200Y020320
X078740Y020320
X081280Y020320
X083820Y020320
X086360Y020320
X088900Y020320
X091440Y020320
X076200Y015240
X078740Y015240
X081280Y015240
X083820Y015240
X086360Y015240
X088900Y015240
X091440Y015240
X005080Y017780
X002540Y017780
X015240Y017790
X017780Y017790
X012700Y025400
X091440Y017780
X088900Y017780
X076200Y017778
X078740Y017788
X091440Y025400
X091440Y022860
X083820Y025400
X083820Y022860
X091440Y033020
X091440Y030480
X083820Y030480
X083820Y033020
X086360Y033020
X081280Y025400
X086360Y040640
X083820Y040640
X083820Y038100
X091440Y038100
X088900Y040640
X005080Y040640
X007620Y040640
X010160Y040640
X010160Y038100
X002540Y038100
X002540Y033020
X002540Y030480
X010160Y033020
X010160Y030480
X007620Y033020
X058420Y015240
X066040Y015240
X066040Y012700
X058420Y012827
X035560Y020280
X035560Y017774
X035560Y012694
X035560Y010120
X038100Y007600
X040640Y007600
X043180Y007600
X045720Y007600
X050800Y007600
X053340Y007600
X048260Y007600
X056007Y007600
X058420Y007600
X035560Y015240
X035560Y007600
X035560Y022887
X033020Y010160
X033020Y012700
X061087Y007600
X063500Y007600
X066040Y007600
X068580Y007600
X066040Y022887
X063500Y022887
X060960Y022887
X058420Y022887
X055880Y022887
X053340Y022887
X050800Y022887
X048260Y022887
X045720Y022887
X043180Y022887
X040513Y022887
X038100Y022887
X033020Y022887
X068580Y022887
X005080Y022860
X007620Y022877
X010160Y022830
X086360Y025400
X086360Y022860
X088900Y022860
X005080Y025400
X007620Y025382
X010160Y025420
X033020Y007588
X033020Y015240
X058420Y017780
X066040Y017780
X035560Y025389
X035560Y005022
X083820Y035560
X091440Y035560
X088900Y035560
X091440Y027940
X083820Y027940
X088900Y027940
X010160Y035560
X005080Y035560
X002540Y035560
M30
